<svg xmlns="http://www.w3.org/2000/svg" width="100%" height="auto" viewBox="0 0 643 240" fill="none">
            <path d="M643 119.69L0 240V0H643V119.69Z" fill="#E8F7FA"></path>
            <path d="M466.162 144.995C466.162 145.375 465.881 145.68 465.533 145.68C465.184 145.68 464.903 145.375 464.903 144.995C464.903 144.616 465.184 144.31 465.533 144.31C465.881 144.31 466.162 144.616 466.162 144.995Z" fill="#389FE5"></path>
            <path d="M430.783 52.7485C430.783 53.1281 430.502 53.4338 430.154 53.4338C429.805 53.4338 429.524 53.1281 429.524 52.7485C429.524 52.369 429.805 52.0632 430.154 52.0632C430.502 52.0632 430.783 52.369 430.783 52.7485Z" fill="#389FE5"></path>
            <path d="M517.311 75.4159C517.311 75.7954 517.03 76.1012 516.681 76.1012C516.332 76.1012 516.051 75.7954 516.051 75.4159C516.051 75.0363 516.332 74.7306 516.681 74.7306C517.03 74.7306 517.311 75.0363 517.311 75.4159Z" fill="#389FE5"></path>
            <path d="M575.7 75.4159C575.7 75.7954 575.419 76.1012 575.07 76.1012C574.721 76.1012 574.44 75.7954 574.44 75.4159C574.44 75.0363 574.721 74.7306 575.07 74.7306C575.419 74.7306 575.7 75.0363 575.7 75.4159Z" fill="#389FE5"></path>
            <path d="M556.84 115.532C556.84 115.912 556.56 116.218 556.211 116.218C555.862 116.218 555.581 115.912 555.581 115.532C555.581 115.153 555.862 114.847 556.211 114.847C556.56 114.847 556.84 115.153 556.84 115.532Z" fill="#389FE5"></path>
            <path d="M404.156 91.9685C404.02 91.9685 403.909 91.8473 403.909 91.6997V89.8072C403.909 89.6596 404.02 89.5383 404.156 89.5383C404.291 89.5383 404.403 89.6596 404.403 89.8072V91.6997C404.403 91.8473 404.291 91.9685 404.156 91.9685Z" fill="#389FE5"></path>
            <path d="M405.023 91.0196H403.284C403.148 91.0196 403.037 90.8984 403.037 90.7508C403.037 90.6032 403.148 90.4819 403.284 90.4819H405.023C405.158 90.4819 405.27 90.6032 405.27 90.7508C405.27 90.8984 405.158 91.0196 405.023 91.0196Z" fill="#389FE5"></path>
            <path d="M433.34 121.115C433.205 121.115 433.093 120.994 433.093 120.846V118.953C433.093 118.806 433.205 118.685 433.34 118.685C433.476 118.685 433.587 118.806 433.587 118.953V120.846C433.587 120.994 433.476 121.115 433.34 121.115Z" fill="#389FE5"></path>
            <path d="M434.212 120.166H432.473C432.338 120.166 432.226 120.045 432.226 119.897C432.226 119.75 432.338 119.628 432.473 119.628H434.212C434.348 119.628 434.459 119.75 434.459 119.897C434.459 120.045 434.348 120.166 434.212 120.166Z" fill="#389FE5"></path>
            <path d="M550.791 44.7463C550.656 44.7463 550.544 44.6251 550.544 44.4775V42.585C550.544 42.4374 550.656 42.3162 550.791 42.3162C550.927 42.3162 551.038 42.4374 551.038 42.585V44.4775C551.038 44.6251 550.927 44.7463 550.791 44.7463Z" fill="#389FE5"></path>
            <path d="M551.663 43.7973H549.924C549.789 43.7973 549.677 43.6761 549.677 43.5285C549.677 43.3809 549.789 43.2596 549.924 43.2596H551.663C551.799 43.2596 551.91 43.3809 551.91 43.5285C551.91 43.6761 551.799 43.7973 551.663 43.7973Z" fill="#389FE5"></path>
            <path d="M602.23 123.281C602.095 123.281 601.983 123.16 601.983 123.012V121.12C601.983 120.972 602.095 120.851 602.23 120.851C602.366 120.851 602.477 120.972 602.477 121.12V123.012C602.477 123.16 602.366 123.281 602.23 123.281Z" fill="#389FE5"></path>
            <path d="M603.102 122.333H601.363C601.228 122.333 601.116 122.211 601.116 122.064C601.116 121.916 601.228 121.795 601.363 121.795H603.102C603.238 121.795 603.349 121.916 603.349 122.064C603.349 122.211 603.238 122.333 603.102 122.333Z" fill="#389FE5"></path>
            <path d="M521.418 151.837C521.282 151.837 521.171 151.716 521.171 151.569V149.676C521.171 149.528 521.282 149.407 521.418 149.407C521.553 149.407 521.665 149.528 521.665 149.676V151.569C521.665 151.716 521.553 151.837 521.418 151.837Z" fill="#389FE5"></path>
            <path d="M522.289 150.889H520.551C520.415 150.889 520.304 150.768 520.304 150.62C520.304 150.472 520.415 150.351 520.551 150.351H522.289C522.425 150.351 522.536 150.472 522.536 150.62C522.536 150.768 522.425 150.889 522.289 150.889Z" fill="#389FE5"></path>
            <path d="M495.323 35.9165C495.187 35.9165 495.076 35.7953 495.076 35.6477V33.7552C495.076 33.6076 495.187 33.4863 495.323 33.4863C495.458 33.4863 495.57 33.6076 495.57 33.7552V35.6477C495.57 35.7953 495.458 35.9165 495.323 35.9165Z" fill="#389FE5"></path>
            <path d="M496.19 34.9675H494.451C494.315 34.9675 494.204 34.8463 494.204 34.6987C494.204 34.5511 494.315 34.4298 494.451 34.4298H496.19C496.325 34.4298 496.437 34.5511 496.437 34.6987C496.437 34.8463 496.325 34.9675 496.19 34.9675Z" fill="#389FE5"></path>
            <path d="M515.314 195.44C517.362 190.906 520.675 187.153 524.332 184.106C527.281 181.649 530.618 179.256 534.11 177.843C537.21 176.589 537.897 179.535 540.396 180.542C541.995 181.185 543.767 180.2 545.026 178.95C546.237 177.743 547.24 176.225 548.688 175.318C549.753 174.649 551.347 174.317 552.47 175.033C553.86 175.924 553.623 178.107 555.502 178.355C556.379 178.471 557.25 178.128 558.04 177.706C559.904 176.71 561.75 175.793 563.745 175.155C565.552 174.58 567.891 174.385 568.932 176.093C569.935 177.727 568.981 179.952 567.779 181.412C564.878 184.939 560.597 186.842 556.287 187.464C555.11 187.632 553.904 187.727 552.819 188.244C551.734 188.766 550.775 189.836 550.732 191.127C550.707 191.823 550.945 192.498 550.954 193.194C550.979 195.123 549.23 196.562 547.501 196.995C543.055 198.102 540.164 193.853 535.984 193.199C531.248 192.461 523.949 193.268 520.661 197.606" fill="#B0EEFF"></path>
            <path opacity="0.5" d="M523.126 193.32C527.707 188.671 533.785 185.587 540.14 184.691C544.101 184.132 548.116 184.401 552.093 184.011C556.069 183.621 560.19 182.45 563.057 179.567" stroke="white" stroke-width="0.89" stroke-linecap="round" stroke-linejoin="round"></path>
            <path d="M543.883 174.137C546.252 172.646 548.794 170.574 548.121 167.416C547.903 166.378 547.201 165.434 547.317 164.38C547.395 163.684 547.821 163.104 548.136 162.487C548.877 161.027 548.978 159.203 548.407 157.653C547.797 155.988 546.503 154.738 545.695 153.173C545.036 151.897 544.712 150.416 544.774 148.955C542.275 149.24 540.115 150.959 537.694 151.702C535.844 152.271 533.868 152.261 532.042 152.909C528.71 154.1 526.201 157.638 525.988 161.449C524.385 161.312 522.738 162.103 521.745 163.478C520.694 164.944 520.196 166.931 520.462 168.771C521.552 176.436 525.174 182.53 529.809 188.212C528.802 186.974 531.897 183.136 532.497 182.387C535.098 179.135 538.672 177.258 542.082 175.223C542.624 174.897 543.249 174.543 543.883 174.143V174.137Z" fill="#B0EEFF"></path>
            <g opacity="0.5">
                <path d="M530.371 177.922C529.78 174.638 530.57 171.254 531.538 168.075C532.478 164.975 533.606 161.923 535.229 159.182C536.856 156.441 539.011 154.016 541.665 152.508" stroke="white" stroke-width="0.89" stroke-linecap="round" stroke-linejoin="round"></path>
                <path d="M531.17 155.603C531.107 158.591 531.625 162.129 532.575 164.933" stroke="white" stroke-width="0.89" stroke-linecap="round" stroke-linejoin="round"></path>
                <path d="M532.996 163.826C535.916 161.348 540.576 159.561 544.276 159.424" stroke="white" stroke-width="0.89" stroke-linecap="round" stroke-linejoin="round"></path>
                <path d="M525.455 165.133C529.335 166.478 529.993 172.44 530.235 174.127" stroke="white" stroke-width="0.89" stroke-linecap="round" stroke-linejoin="round"></path>
                <path d="M530.933 170.226C533.601 167.711 538.198 165.023 541.307 165.55" stroke="white" stroke-width="0.89" stroke-linecap="round" stroke-linejoin="round"></path>
                <path d="M530.366 177.617C532.487 174.538 538.285 170.774 541.394 171.301" stroke="white" stroke-width="0.89" stroke-linecap="round" stroke-linejoin="round"></path>
                <path d="M537.379 153.436C536.619 154.675 536.517 156.072 536.686 157.01" stroke="white" stroke-width="0.89" stroke-linecap="round" stroke-linejoin="round"></path>
                <path d="M537.427 156.088C538.682 155.223 540.43 154.875 542.358 155.202" stroke="white" stroke-width="0.89" stroke-linecap="round" stroke-linejoin="round"></path>
            </g>
            <path d="M476.472 200.964C473.27 191.412 465.056 182.503 456.968 177.416C454.997 176.177 452.116 175.239 451.215 178.202C450.634 180.105 448.595 179.609 447.432 178.729C445.989 177.638 445.146 175.866 443.921 174.533C442.938 173.463 441.684 172.64 440.308 172.398C438.933 172.155 437.436 172.545 436.429 173.594C435.663 174.385 435.203 175.503 434.356 176.193C432.937 177.348 430.869 176.915 429.358 175.909C427.847 174.902 426.655 173.41 425.193 172.319C423.73 171.233 421.754 170.59 420.195 171.507C418.131 172.725 417.942 175.972 418.819 178.344C419.361 179.81 420.214 181.934 421.245 183.078C422.703 184.707 424.829 185.793 426.859 186.225C428.355 186.547 429.9 186.536 431.387 186.921C431.925 187.058 432.54 187.306 432.646 187.98C432.801 188.95 431.697 189.546 431.053 189.899C429.939 190.511 428.835 191.844 429.353 193.078C429.677 193.853 430.515 194.201 431.285 194.343C433.605 194.77 435.901 194.043 438.1 193.305C439.436 192.857 440.608 191.945 441.984 191.56C442.696 191.359 444.522 191.27 444.328 192.582C444.265 192.994 443.999 193.331 443.708 193.6C443.417 193.869 443.093 194.101 442.851 194.422C441.795 195.819 442.841 197.459 444.226 197.822C445.292 198.102 446.401 197.807 447.466 197.532C454.431 195.761 461.734 195.076 468.742 196.62C470.234 196.947 471.866 197.506 472.617 198.95" fill="#B0EEFF"></path>
            <path opacity="0.5" d="M468.965 194.949C463.841 189.789 457.056 186.383 449.965 185.418C445.548 184.817 441.073 185.134 436.642 184.717C432.21 184.301 427.609 183.02 424.403 179.82" stroke="white" stroke-width="0.89" stroke-linecap="round" stroke-linejoin="round"></path>
            <g style="mix-blend-mode:multiply" opacity="0.25">
                <path d="M470.553 195.687C470.553 195.687 458.373 186.868 454.934 177.922C457.259 178.607 458.76 179.43 460.393 180.874C462.151 183.578 466.34 187.732 469.183 190.426C469.59 191.902 470.04 193.637 470.553 195.687Z" fill="#FCCCB1"></path>
            </g>
            <path d="M470.093 192.656C469.638 189.541 468.374 186.452 467.88 183.284C467.086 178.207 466.965 173.104 467.827 168.059C468.563 163.763 469.783 159.261 468.447 154.912C468.093 153.758 467.434 152.508 466.059 152.519C465.507 152.519 464.984 152.772 464.587 153.157C463.584 154.127 463.4 155.518 463.235 156.847L462.688 161.291C462.509 162.735 460.489 162.909 460.083 161.502L460.073 161.465C459.744 160.284 459.802 159.035 459.889 157.817C460.078 155.165 460.393 152.493 460.02 149.852C459.569 146.657 457.956 143.415 454.818 142.213C453.704 141.786 452.474 141.733 451.35 142.081C448.207 143.057 447.573 146.283 448.202 148.982C448.648 150.88 449.631 152.603 450.532 154.338C452.731 158.565 451.544 162.588 452.096 167.316C453.263 177.332 462.272 187.016 470.098 192.646L470.093 192.656Z" fill="#B0EEFF"></path>
            <path opacity="0.5" d="M452.891 147.896C459.472 156.562 457.094 177.026 468.563 188.07" stroke="white" stroke-width="0.89" stroke-linecap="round" stroke-linejoin="round"></path>
            <path opacity="0.5" d="M465.735 158.07C466.485 162.45 463.899 167.369 463.298 170.094C462.698 172.82 462.383 177.464 463.027 180.2" stroke="white" stroke-width="0.89" stroke-linecap="round" stroke-linejoin="round"></path>
            <path d="M446.837 200.88C446.551 199.13 442.056 188.207 436.855 191.133C433.765 192.872 434.322 199.267 439.146 204.095C438.196 203.099 437.107 201.966 435.814 201.686C435.116 201.533 434.259 201.887 433.736 202.409C433.271 202.878 433.135 203.616 433.111 204.306C433.034 206.81 434.235 209.32 436.162 210.69C435.097 210.042 434.172 209.23 432.951 209.114C432.554 209.077 431.886 209.325 431.702 209.71C431.503 210.126 431.518 211.692 433.867 212.862C424.287 210.885 423.73 215.329 427.173 215.329H455.414" fill="#E9F9FF"></path>
            <path d="M464.785 192.208C464.33 189.404 459.584 171.776 451.258 176.457C446.314 179.24 447.2 189.477 454.929 197.211C453.414 195.614 451.66 193.805 449.592 193.357C448.474 193.115 447.108 193.674 446.27 194.517C445.524 195.266 445.306 196.446 445.272 197.553C445.146 201.565 447.069 205.582 450.159 207.77C448.449 206.731 446.967 205.429 445.02 205.245C444.386 205.187 443.311 205.582 443.02 206.194C442.701 206.863 442.725 209.367 446.483 211.238C431.15 208.07 430.254 215.187 435.765 215.187H472.195" fill="#D7F6FF"></path>
            <path d="M546.823 200.88C547.109 199.13 551.603 188.207 556.805 191.133C559.895 192.872 559.338 199.267 554.514 204.095C555.463 203.099 556.553 201.966 557.846 201.686C558.544 201.533 559.401 201.887 559.924 202.409C560.389 202.878 560.524 203.616 560.549 204.306C560.626 206.81 559.425 209.32 557.497 210.69C558.563 210.042 559.488 209.23 560.708 209.114C561.106 209.077 561.774 209.325 561.958 209.71C562.157 210.126 562.142 211.692 559.793 212.862C569.373 210.885 569.93 215.329 566.486 215.329H538.246" fill="#E9F9FF"></path>
            <path d="M528.87 192.208C529.325 189.404 534.071 171.776 542.397 176.457C547.341 179.24 546.455 189.477 538.725 197.211C540.241 195.614 541.995 193.805 544.063 193.357C545.181 193.115 546.547 193.674 547.385 194.517C548.131 195.266 548.349 196.446 548.383 197.553C548.509 201.565 546.586 205.582 543.496 207.77C545.206 206.731 546.688 205.429 548.634 205.245C549.269 205.187 550.344 205.582 550.635 206.194C550.954 206.863 550.93 209.367 547.172 211.238C562.505 208.07 563.401 215.187 557.89 215.187H521.46" fill="#D7F6FF"></path>
            <path opacity="0.2" d="M503.012 156.104C498.794 154.838 495.583 150.943 495.331 146.188C495.321 145.956 495.312 145.729 495.312 145.503C495.312 145.439 495.312 145.366 495.321 145.297C495.312 145.234 495.312 145.16 495.312 145.091C495.312 144.865 495.321 144.638 495.331 144.406C495.583 139.651 498.794 135.756 503.012 134.49C518.903 129.704 530.579 113.847 530.579 95.0277C530.579 92.4974 530.371 90.0198 529.959 87.616C529.892 87.2048 529.819 86.7989 529.737 86.3982C529.679 86.103 529.62 85.8078 529.553 85.5126C529.553 85.4968 529.548 85.4757 529.543 85.4599C529.509 85.307 529.475 85.1542 529.436 85.0013C529.373 84.7061 529.306 84.4214 529.228 84.1315C529.117 83.6887 529 83.2511 528.875 82.8136H527.591C527.635 82.9559 527.678 83.0983 527.712 83.2406C527.722 83.2669 527.732 83.288 527.736 83.3144C527.809 83.5622 527.877 83.8099 527.94 84.0577C527.983 84.2211 528.027 84.3792 528.061 84.5427C528.129 84.801 528.192 85.054 528.25 85.3123C528.289 85.4757 528.327 85.6391 528.356 85.7973C528.419 86.0609 528.473 86.3192 528.521 86.5827C528.54 86.6724 528.56 86.762 528.574 86.8516C528.579 86.8832 528.589 86.9201 528.594 86.957C528.652 87.2575 528.705 87.558 528.753 87.8584C529.151 90.1885 529.354 92.5975 529.354 95.0277C529.354 112.777 518.384 128.476 502.688 133.204C497.83 134.664 494.382 139.129 494.111 144.332C494.096 144.585 494.091 144.838 494.091 145.091C494.091 145.16 494.091 145.234 494.096 145.297C494.091 145.366 494.091 145.439 494.091 145.503C494.091 145.756 494.096 146.009 494.111 146.262C494.382 151.465 497.83 155.935 502.688 157.39C518.384 162.118 529.354 177.822 529.354 195.566C529.354 197.996 529.151 200.411 528.753 202.741C528.206 206.062 527.257 209.293 525.93 212.361H460C458.673 209.293 457.724 206.062 457.172 202.736C456.775 200.411 456.576 197.996 456.576 195.566C456.576 177.822 467.546 162.118 483.243 157.39C488.1 155.935 491.544 151.465 491.82 146.262C491.834 146.009 491.839 145.756 491.839 145.503C491.839 145.439 491.839 145.366 491.834 145.297C491.839 145.234 491.839 145.16 491.839 145.091C491.839 144.838 491.834 144.585 491.82 144.332C491.544 139.129 488.1 134.664 483.243 133.204C467.546 128.476 456.576 112.777 456.576 95.0277C456.576 92.5975 456.775 90.1885 457.172 87.8584C457.24 87.442 457.317 87.0308 457.4 86.6144C457.4 86.6038 457.404 86.5933 457.404 86.5827C457.487 86.1821 457.569 85.7815 457.661 85.3808C457.666 85.3597 457.671 85.3387 457.676 85.3123C457.748 85.0065 457.821 84.6955 457.903 84.3951C457.908 84.3687 457.918 84.3476 457.923 84.3213C457.947 84.2053 457.981 84.084 458.015 83.9681C458.068 83.7467 458.131 83.5305 458.194 83.3144C458.199 83.288 458.208 83.2669 458.218 83.2406C458.252 83.0983 458.295 82.9559 458.339 82.8136H457.056C456.93 83.2511 456.813 83.6887 456.702 84.1315C456.625 84.4214 456.557 84.7061 456.494 85.0013C456.455 85.1542 456.421 85.307 456.387 85.4599C456.382 85.4757 456.378 85.4968 456.378 85.5126C456.31 85.8078 456.252 86.103 456.194 86.3982C456.111 86.7989 456.039 87.2048 455.971 87.616C455.559 90.0198 455.351 92.4974 455.351 95.0277C455.351 113.847 467.023 129.704 482.918 134.49C487.132 135.756 490.347 139.651 490.594 144.406C490.609 144.638 490.614 144.865 490.614 145.091C490.614 145.16 490.614 145.234 490.609 145.297C490.614 145.366 490.614 145.439 490.614 145.503C490.614 145.729 490.609 145.956 490.594 146.188C490.347 150.943 487.132 154.838 482.918 156.104C467.023 160.895 455.351 176.747 455.351 195.566C455.351 198.097 455.559 200.574 455.971 202.978C456.6 206.763 457.714 210.358 459.23 213.695H526.7C528.216 210.358 529.33 206.763 529.959 202.978C530.371 200.574 530.579 198.097 530.579 195.566C530.579 176.747 518.903 160.895 503.012 156.104Z" fill="#389FE5"></path>
            <path d="M529.354 195.566C529.354 197.996 529.151 200.411 528.753 202.741C528.206 206.062 527.257 209.293 525.93 212.361H460C458.673 209.293 457.724 206.062 457.172 202.736C456.775 200.411 456.576 197.996 456.576 195.566C456.576 177.822 467.546 162.118 483.243 157.39C488.1 155.935 491.544 151.465 491.82 146.262C491.834 146.009 491.839 145.756 491.839 145.503C491.839 145.439 491.839 145.366 491.834 145.297C491.839 145.234 491.839 145.16 491.839 145.091C491.839 144.838 491.834 144.585 491.82 144.332C491.544 139.129 488.1 134.664 483.243 133.204C467.546 128.476 456.576 112.777 456.576 95.0277C456.576 92.5975 456.775 90.1885 457.172 87.8584C457.24 87.442 457.317 87.0308 457.4 86.6144C457.4 86.6038 457.404 86.5933 457.404 86.5827C457.482 86.1821 457.569 85.7815 457.661 85.3808C457.666 85.3597 457.671 85.3387 457.676 85.3123C457.753 84.9802 457.831 84.6534 457.923 84.3213C458.005 83.9839 458.097 83.6465 458.194 83.3144C458.242 83.1457 458.291 82.977 458.339 82.8136H527.591C527.64 82.977 527.688 83.1457 527.736 83.3144C527.809 83.5622 527.877 83.8099 527.94 84.0577C527.983 84.2211 528.027 84.3792 528.061 84.5427C528.129 84.801 528.192 85.054 528.25 85.3123C528.289 85.4757 528.327 85.6391 528.356 85.7973C528.419 86.0609 528.473 86.3192 528.521 86.5827C528.545 86.704 528.569 86.8305 528.594 86.957C528.652 87.2575 528.705 87.558 528.753 87.8584C529.151 90.1885 529.354 92.5975 529.354 95.0277C529.354 112.777 518.384 128.476 502.688 133.204C497.83 134.664 494.382 139.129 494.111 144.332C494.096 144.585 494.091 144.838 494.091 145.091C494.091 145.16 494.091 145.234 494.096 145.297C494.091 145.366 494.091 145.439 494.091 145.503C494.091 145.756 494.096 146.009 494.111 146.262C494.382 151.465 497.83 155.935 502.688 157.39C518.384 162.118 529.354 177.822 529.354 195.566Z" fill="white"></path>
            <path opacity="0.5" d="M529.354 195.566C529.354 197.996 529.151 200.411 528.753 202.741C528.206 206.062 527.257 209.293 525.93 212.361H460C458.673 209.293 457.724 206.062 457.172 202.736C456.775 200.411 456.576 197.996 456.576 195.566C456.576 177.822 467.546 162.118 483.243 157.39C488.1 155.935 491.544 151.465 491.82 146.262C491.834 146.009 491.839 145.756 491.839 145.503C491.839 145.439 491.839 145.366 491.834 145.297C491.839 145.234 491.839 145.16 491.839 145.091C491.839 144.838 491.834 144.585 491.82 144.332C491.544 139.129 488.1 134.664 483.243 133.204C467.546 128.476 456.576 112.777 456.576 95.0277C456.576 92.5975 456.775 90.1885 457.172 87.8584C457.24 87.442 457.317 87.0308 457.4 86.6144C457.4 86.6038 457.404 86.5933 457.404 86.5827C457.482 86.1821 457.569 85.7815 457.661 85.3808C457.666 85.3597 457.671 85.3387 457.676 85.3123C457.753 84.9802 457.831 84.6534 457.923 84.3213C458.005 83.9839 458.097 83.6465 458.194 83.3144C458.242 83.1457 458.291 82.977 458.339 82.8136H527.591C527.64 82.977 527.688 83.1457 527.736 83.3144C527.809 83.5622 527.877 83.8099 527.94 84.0577C527.983 84.2211 528.027 84.3792 528.061 84.5427C528.129 84.801 528.192 85.054 528.25 85.3123C528.289 85.4757 528.327 85.6391 528.356 85.7973C528.419 86.0609 528.473 86.3192 528.521 86.5827C528.545 86.704 528.569 86.8305 528.594 86.957C528.652 87.2575 528.705 87.558 528.753 87.8584C529.151 90.1885 529.354 92.5975 529.354 95.0277C529.354 112.777 518.384 128.476 502.688 133.204C497.83 134.664 494.382 139.129 494.111 144.332C494.096 144.585 494.091 144.838 494.091 145.091C494.091 145.16 494.091 145.234 494.096 145.297C494.091 145.366 494.091 145.439 494.091 145.503C494.091 145.756 494.096 146.009 494.111 146.262C494.382 151.465 497.83 155.935 502.688 157.39C518.384 162.118 529.354 177.822 529.354 195.566Z" fill="#D7ECFA"></path>
            <path d="M462.955 118.354C462.955 118.354 468.694 128.592 482.458 133.299C485.984 134.427 487.17 135.26 489.2 137.295C491.229 139.33 491.921 142.909 491.844 145.74C491.815 147.933 492.972 180.005 492.972 184.001C492.972 187.77 493.423 184.976 493.321 184.169C493.679 161.47 494.101 144.775 494.101 144.775C494.101 144.775 495.345 137.638 497.278 136.657C499.205 135.671 506.209 132.134 509.071 131.259C511.933 130.384 518.859 123.515 518.859 123.515C518.859 123.515 527.654 109.862 528.187 108.117C528.724 106.367 524.211 106.204 524.211 106.204L462.955 118.354Z" fill="#FF9A30"></path>
            <path d="M496.132 119.07C514.566 115.925 529.026 110.015 528.429 105.87C527.832 101.725 512.404 100.916 493.97 104.061C475.536 107.207 461.076 113.117 461.673 117.261C462.27 121.406 477.697 122.216 496.132 119.07Z" fill="#FDCF33"></path>
            <g style="mix-blend-mode:screen" opacity="0.5">
                <g style="mix-blend-mode:screen">
                    <path d="M483.063 128.181C482.666 128.181 482.264 128.112 481.872 127.965C479.242 126.979 476.806 125.729 474.627 124.243C472.912 123.067 472.394 120.6 473.469 118.734C474.549 116.868 476.816 116.304 478.53 117.474C480.23 118.634 482.153 119.62 484.255 120.405C486.173 121.122 487.194 123.394 486.536 125.482C486.013 127.137 484.589 128.181 483.063 128.181Z" fill="white"></path>
                </g>
                <g style="mix-blend-mode:screen">
                    <path d="M468.708 116.393C467.493 116.393 466.306 115.739 465.609 114.543C459.206 103.594 460.857 91.3007 460.93 90.7788C461.24 88.5964 463.114 87.0993 465.115 87.4366C467.115 87.774 468.485 89.8035 468.185 91.9807C468.166 92.1441 466.936 101.923 471.803 110.252C472.893 112.113 472.389 114.585 470.675 115.766C470.064 116.188 469.381 116.393 468.708 116.393Z" fill="white"></path>
                </g>
            </g>
            <g style="mix-blend-mode:screen" opacity="0.5">
                <g style="mix-blend-mode:screen">
                    <path d="M483.063 161.971C482.666 161.971 482.264 162.039 481.872 162.187C479.242 163.173 476.806 164.422 474.627 165.909C472.912 167.084 472.394 169.551 473.469 171.417C474.549 173.283 476.816 173.847 478.53 172.677C480.23 171.517 482.153 170.532 484.255 169.746C486.173 169.029 487.194 166.757 486.536 164.67C486.013 163.014 484.589 161.971 483.063 161.971Z" fill="white"></path>
                </g>
                <g style="mix-blend-mode:screen">
                    <path d="M468.708 173.758C467.493 173.758 466.306 174.412 465.609 175.608C459.206 186.557 460.857 198.851 460.93 199.372C461.24 201.555 463.114 203.052 465.115 202.715C467.115 202.377 468.485 200.348 468.185 198.17C468.166 198.007 466.936 188.228 471.803 179.899C472.893 178.039 472.389 175.566 470.675 174.385C470.064 173.964 469.381 173.758 468.708 173.758Z" fill="white"></path>
                </g>
            </g>
            <path d="M503.012 156.104C498.794 154.838 495.583 150.943 495.331 146.188C495.321 145.956 495.312 145.729 495.312 145.503C495.312 145.439 495.312 145.366 495.321 145.297C495.312 145.234 495.312 145.16 495.312 145.091C495.312 144.865 495.321 144.638 495.331 144.406C495.583 139.651 498.794 135.756 503.012 134.49C518.903 129.704 530.579 113.847 530.579 95.0277C530.579 92.4974 530.371 90.0198 529.959 87.616C529.892 87.2048 529.819 86.7989 529.737 86.3982C529.679 86.103 529.62 85.8078 529.553 85.5126C529.553 85.4968 529.548 85.4757 529.543 85.4599C529.509 85.307 529.475 85.1542 529.436 85.0013C529.373 84.7061 529.306 84.4214 529.228 84.1315C529.117 83.6887 529 83.2511 528.875 82.8136H527.591C527.635 82.9507 527.673 83.0983 527.712 83.2406C527.722 83.2669 527.732 83.288 527.736 83.3144C527.809 83.5622 527.877 83.8099 527.94 84.0577C527.983 84.2211 528.027 84.3792 528.061 84.5427C528.129 84.801 528.192 85.054 528.25 85.3123C528.289 85.4757 528.327 85.6391 528.356 85.7973C528.419 86.0609 528.473 86.3192 528.521 86.5827C528.54 86.6724 528.555 86.762 528.574 86.8516C528.579 86.8832 528.589 86.9201 528.594 86.957C528.652 87.2575 528.705 87.558 528.753 87.8584C529.151 90.1885 529.354 92.5975 529.354 95.0277C529.354 112.777 518.384 128.476 502.688 133.204C497.83 134.664 494.382 139.129 494.111 144.332C494.096 144.585 494.091 144.838 494.091 145.091C494.091 145.16 494.091 145.234 494.096 145.297C494.091 145.366 494.091 145.439 494.091 145.503C494.091 145.756 494.096 146.009 494.111 146.262C494.382 151.465 497.83 155.935 502.688 157.39C518.384 162.118 529.354 177.822 529.354 195.566C529.354 197.996 529.151 200.411 528.753 202.741C528.206 206.062 527.257 209.293 525.93 212.361H460C458.673 209.293 457.724 206.062 457.172 202.736C456.775 200.411 456.576 197.996 456.576 195.566C456.576 177.822 467.546 162.118 483.243 157.39C488.1 155.935 491.544 151.465 491.82 146.262C491.834 146.009 491.839 145.756 491.839 145.503C491.839 145.439 491.839 145.366 491.834 145.297C491.839 145.234 491.839 145.16 491.839 145.091C491.839 144.838 491.834 144.585 491.82 144.332C491.544 139.129 488.1 134.664 483.243 133.204C467.546 128.476 456.576 112.777 456.576 95.0277C456.576 92.5975 456.775 90.1885 457.172 87.8584C457.24 87.442 457.317 87.0255 457.4 86.6144C457.4 86.6038 457.404 86.5933 457.404 86.5827C457.487 86.1821 457.569 85.7815 457.661 85.3808C457.666 85.3597 457.671 85.3387 457.676 85.3123C457.748 85.0065 457.821 84.6955 457.903 84.3951C457.908 84.3687 457.918 84.3476 457.923 84.3213C457.952 84.2053 457.981 84.084 458.015 83.9681C458.068 83.7467 458.131 83.5305 458.194 83.3144C458.199 83.288 458.208 83.2669 458.218 83.2406C458.257 83.0983 458.295 82.9507 458.339 82.8136H457.056C456.93 83.2511 456.813 83.6887 456.702 84.1315C456.625 84.4214 456.557 84.7061 456.494 85.0013C456.455 85.1542 456.421 85.307 456.387 85.4599C456.382 85.4757 456.378 85.4968 456.378 85.5126C456.31 85.8078 456.252 86.103 456.194 86.3982C456.111 86.7989 456.039 87.2048 455.971 87.616C455.559 90.0198 455.351 92.4974 455.351 95.0277C455.351 113.847 467.023 129.704 482.918 134.49C487.132 135.756 490.347 139.651 490.594 144.406C490.609 144.638 490.614 144.865 490.614 145.091C490.614 145.16 490.614 145.234 490.609 145.297C490.614 145.366 490.614 145.439 490.614 145.503C490.614 145.729 490.609 145.956 490.594 146.188C490.347 150.943 487.132 154.838 482.918 156.104C467.023 160.895 455.351 176.747 455.351 195.566C455.351 198.097 455.559 200.574 455.971 202.978C456.6 206.763 457.714 210.358 459.23 213.695H526.7C528.216 210.358 529.33 206.763 529.959 202.978C530.371 200.574 530.579 198.097 530.579 195.566C530.579 176.747 518.903 160.895 503.012 156.104Z" fill="#B7DDF6"></path>
            <path d="M539.849 211.518C539.849 213.658 538.256 215.392 536.289 215.392H449.641C447.674 215.392 446.081 213.658 446.081 211.518C446.081 209.377 447.674 207.643 449.641 207.643H536.289C538.256 207.643 539.849 209.377 539.849 211.518Z" fill="#389FE5"></path>
            <path d="M521.76 107.416C521.818 107.706 521.092 108.122 520.142 108.343C519.193 108.565 518.375 108.502 518.316 108.212C518.258 107.922 518.985 107.505 519.934 107.284C520.883 107.063 521.702 107.126 521.76 107.416Z" fill="#FF9A30"></path>
            <path d="M519.576 110.779C519.634 111.069 519.188 111.422 518.578 111.559C517.973 111.696 517.435 111.575 517.377 111.285C517.319 110.995 517.764 110.642 518.375 110.505C518.98 110.362 519.518 110.489 519.576 110.779Z" fill="#FF9A30"></path>
            <path d="M516.796 109.888C516.854 110.178 516.408 110.531 515.798 110.668C515.193 110.811 514.655 110.684 514.597 110.394C514.539 110.104 514.984 109.751 515.595 109.614C516.2 109.472 516.738 109.598 516.796 109.888Z" fill="#FF9A30"></path>
            <path d="M497.607 112.576C497.636 112.735 497.399 112.924 497.07 112.998C496.74 113.072 496.45 113.009 496.421 112.851C496.392 112.692 496.629 112.503 496.958 112.429C497.288 112.355 497.578 112.418 497.607 112.576Z" fill="#FF9A30"></path>

            <path d="M507.061 113.309C507.09 113.467 506.853 113.657 506.523 113.731C506.194 113.805 505.904 113.741 505.874 113.583C505.845 113.425 506.083 113.235 506.412 113.162C506.741 113.088 507.032 113.151 507.061 113.309Z" fill="#FF9A30"></path>






            <g style="mix-blend-mode:screen">
                <path d="M410.344 139.535C410.135 140.774 410.087 142.06 410.198 143.368L410.644 143.468H410.997L411.351 143.051L411.516 140.447L411.065 138.924L407.859 136.515L407.35 136.314L410.339 139.53L410.344 139.535Z" fill="#FFBD1D"></path>
            </g>

            <g style="mix-blend-mode:screen" opacity="0.3">
                <path d="M429.536 152.741C434.858 149.133 436.484 141.512 433.169 135.72C429.854 129.927 422.853 128.157 417.531 131.765C412.21 135.373 410.583 142.994 413.898 148.786C417.213 154.579 424.214 156.349 429.536 152.741Z" fill="#FF9A30"></path>
            </g>

            <path d="M423.323 132.45V133.668" stroke="#E49F05" stroke-width="0.36" stroke-miterlimit="10"></path>
            <path d="M429.513 135.323L428.718 136.183" stroke="#E49F05" stroke-width="0.36" stroke-miterlimit="10"></path>

            <path d="M429.382 148.855L428.592 147.99" stroke="#E49F05" stroke-width="0.36" stroke-miterlimit="10"></path>

            <path d="M416.954 148.713L417.744 147.854" stroke="#E49F05" stroke-width="0.36" stroke-miterlimit="10"></path>
            <path d="M415.69 141.918H414.572" stroke="#E49F05" stroke-width="0.36" stroke-miterlimit="10"></path>
            <path d="M417.138 135.244L417.928 136.108" stroke="#E49F05" stroke-width="0.36" stroke-miterlimit="10"></path>
            <path d="M426.694 133.151L426.432 133.842" stroke="#E49F05" stroke-width="0.36" stroke-miterlimit="10"></path>
            <path d="M431.479 138.307L430.845 138.597" stroke="#E49F05" stroke-width="0.36" stroke-miterlimit="10"></path>
            <path d="M431.513 145.639L430.878 145.355" stroke="#E49F05" stroke-width="0.36" stroke-miterlimit="10"></path>
            <path d="M426.776 150.848L426.51 150.157" stroke="#E49F05" stroke-width="0.36" stroke-miterlimit="10"></path>
            <path d="M420.04 150.885L420.301 150.194" stroke="#E49F05" stroke-width="0.36" stroke-miterlimit="10"></path>
            <path d="M415.254 145.729L415.889 145.439" stroke="#E49F05" stroke-width="0.36" stroke-miterlimit="10"></path>
            <path d="M415.221 138.396L415.855 138.681" stroke="#E49F05" stroke-width="0.36" stroke-miterlimit="10"></path>
            <path d="M419.957 133.188L420.224 133.879" stroke="#E49F05" stroke-width="0.36" stroke-miterlimit="10"></path>
            <path d="M422.664 141.918C422.664 142.313 422.96 142.635 423.323 142.635C423.686 142.635 423.982 142.313 423.982 141.918C423.982 141.522 423.686 141.201 423.323 141.201C422.96 141.201 422.664 141.522 422.664 141.918Z" fill="#8CC64B"></path>
            <path opacity="0.3" d="M422.597 142.213C422.597 142.719 422.974 143.13 423.439 143.13C423.478 143.13 423.512 143.125 423.551 143.12L425.837 147.337L427.043 147.927C427.212 148.012 427.401 147.848 427.367 147.648L427.12 146.235L427.106 146.219L423.933 142.925C424.19 142.766 424.292 142.561 424.292 142.218C424.292 141.738 423.953 141.348 423.522 141.306L424.059 136.72L423.686 135.639C423.623 135.455 423.386 135.45 423.313 135.629L422.897 136.678V136.699L423.284 141.28C422.863 141.333 422.606 141.738 422.606 142.213H422.597ZM423.028 136.699L427.27 147.875L423.028 136.699Z" fill="#3D3D3D"></path>
            <path d="M423.488 135.608L423.793 136.488C423.803 136.52 423.807 136.551 423.803 136.588L423.255 141.253L422.786 136.556C422.786 136.52 422.786 136.488 422.8 136.451L423.134 135.602C423.202 135.434 423.425 135.439 423.483 135.613L423.488 135.608Z" fill="#FF9A30"></path>
            <path d="M427.261 147.574L426.239 147.078C426.195 147.057 426.161 147.026 426.137 146.978L423.653 142.403L427.285 145.977C427.319 146.014 427.343 146.061 427.353 146.108L427.561 147.3C427.595 147.495 427.416 147.648 427.251 147.569L427.261 147.574Z" fill="#FF9A30"></path>
            <path d="M423.299 142.935C423.764 142.935 424.142 142.524 424.142 142.018C424.142 141.511 423.764 141.101 423.299 141.101C422.834 141.101 422.456 141.511 422.456 142.018C422.456 142.524 422.834 142.935 423.299 142.935Z" fill="#E49F05"></path>
            <path d="M423.299 142.819C423.706 142.819 424.035 142.46 424.035 142.018C424.035 141.575 423.706 141.217 423.299 141.217C422.892 141.217 422.563 141.575 422.563 142.018C422.563 142.46 422.892 142.819 423.299 142.819Z" fill="#FF9A30"></path>
            <path d="M411.806 128.987C411.806 128.987 416.402 129.129 413.971 134.838C411.535 140.547 411.806 128.987 411.806 128.987Z" fill="#1F3A71"></path>
            <path d="M413.09 131.064C413.09 131.064 414.329 131.891 414.31 136.356C414.31 136.509 414.814 137.832 414.857 137.985C415.032 138.586 414.683 138.623 414.213 138.876C414.024 142.245 413.559 142.181 413.153 142.482C412.688 142.819 409.128 142.023 406.842 140.79C404.556 139.556 403.781 135.877 404.745 133.62C405.709 131.364 410.416 129.118 413.085 131.064H413.09Z" fill="#FFC8B0"></path>
            <path d="M402.803 134.221C402.435 136.341 403.389 139.572 407.2 140.974C407.2 140.974 407.539 139.699 407.782 138.444C408.024 137.189 411.259 135.755 412.659 134.39C412.726 134.322 412.794 134.253 412.857 134.185C413.855 133.041 413.802 131.248 412.891 130.025C412.107 128.971 410.368 127.226 407.259 128.375C404.483 129.398 403.253 131.607 402.798 134.221H402.803Z" fill="#1F3A71"></path>
            <path d="M411.99 138.934C411.39 139.64 411.278 141.074 411.327 142.44C411.341 142.672 411.356 142.903 411.365 143.13C411.472 144.532 411.709 145.697 411.709 145.697L407.312 145.576C407.476 143.847 407.205 140.964 407.205 140.964C407.205 140.964 413.409 137.252 411.99 138.929V138.934Z" fill="#FFC8B0"></path>
            <path d="M411.37 143.125C409.748 142.513 408.455 141.517 408.455 141.517C409.685 141.955 411.332 142.434 411.332 142.434C411.346 142.666 411.361 142.898 411.37 143.125Z" fill="#F2A181"></path>
            <path d="M414.504 177.068L407.627 168.998C407.627 168.998 403.461 173.789 404.232 179.056C404.609 181.644 405.302 182.993 405.53 184.227C405.743 185.381 406.28 201.375 405.98 202.503C405.68 203.626 404.077 206.673 403.224 209.984C402.197 213.969 401.151 219.741 400.313 223.189C399.476 226.636 400.851 231.238 401.151 230.073C403.694 220.121 410.353 208.666 411.438 203.668C412.528 198.666 413.361 189.356 414.499 177.068H414.504Z" fill="#FFBE9D"></path>
            <path d="M403.244 222.846C403.244 222.846 401.137 229.357 401.306 230.184C401.408 230.69 401.878 232.393 401.984 232.635C402.028 232.73 403.539 234.038 402.532 234.011C401.544 233.985 399.195 230.585 398.846 230.326C398.265 229.899 398.032 229.235 398.153 228.655C398.362 227.654 398.977 226.889 399.432 226.188C399.887 225.487 400.251 223.5 400.251 223.5L403.244 222.846Z" fill="#FFBE9D"></path>
            <path d="M403.868 234.301C403.476 233.647 402.241 232.888 402.241 232.888C402.057 232.63 401.902 232.467 401.979 232.63C402.11 232.904 401.437 233.047 401.108 232.751C399.955 231.744 399.626 230.247 399.059 229.536C398.25 228.524 398.817 227.19 398.904 226.963C398.638 226.942 397.538 227.538 397.248 227.77C396.981 227.981 396.487 228.497 396.371 228.835C396.294 229.072 395.877 230.274 395.582 230.796L396.671 231.739L397.727 230.695L398.018 231.033C398.308 231.37 398.531 231.945 398.58 232.287C398.599 232.435 398.72 232.836 398.856 233.215C399.015 233.69 399.301 234.111 399.66 234.433C399.66 234.433 399.887 234.633 400.125 234.849C400.473 235.16 400.909 235.329 401.36 235.329H403.524C403.82 235.329 404.072 235.05 404.028 234.733C404.009 234.607 403.96 234.459 403.863 234.296L403.868 234.301Z" fill="#1F3A71"></path>
            <path d="M419.759 233.3C419.609 233.084 417.85 232.593 417.046 232.13C416.281 231.687 415.41 230.427 415.264 229.916C415.119 229.404 415.366 226.9 415.477 225.851C416.243 218.624 418.591 208.503 419.119 204.28C420.04 196.942 419.788 189.246 418.165 177.163L409.133 168.107C409.133 168.107 405.961 173.336 406.435 178.682C406.711 181.781 408.997 182.477 409.293 183.705C409.588 184.928 413.874 204.612 413.874 204.612C413.874 204.612 412.392 208.629 411.952 213.152C411.574 217.011 412.571 221.355 412.499 225.825C412.46 226.695 412.426 228.787 412.14 229.425C411.787 230.206 410.973 231.086 410.925 232.114C410.896 232.709 411.244 233.31 411.913 233.611C412.581 233.911 412.998 233.516 413.235 233.527C414.606 233.6 414.901 234.66 417.264 234.892C417.991 234.96 419.085 234.628 419.696 234.059C419.933 233.838 419.909 233.511 419.759 233.295V233.3Z" fill="#FFBE9D"></path>
            <path d="M419.885 234.228C419.797 234.412 419.633 234.618 419.395 234.818C418.964 235.176 418.417 235.335 417.875 235.335H416.717C416.247 235.335 415.787 235.203 415.38 234.944C415.056 234.739 414.727 234.512 414.63 234.417C414.392 234.18 413.884 233.895 413.463 233.837C413.041 233.779 412.717 233.822 412.717 233.822L412.634 235.34H411.041C411.089 234.818 410.712 233.405 410.634 233.168C410.528 232.82 410.668 232.187 410.746 231.84C410.838 231.455 411.55 230.248 411.772 230.079C411.835 230.316 412.174 231.739 413.395 231.961C414.242 232.119 415.371 233.057 416.848 233.036C417.274 233.036 417.715 232.467 417.453 232.34C417.192 232.219 417.923 232.356 418.388 232.541C418.853 232.725 419.657 233.205 419.889 233.347C420.049 233.447 420.03 233.911 419.875 234.228H419.885Z" fill="#1F3A71"></path>
            <path d="M400.192 157.88C400.192 157.88 400.657 160.468 400.948 161.538C401.238 162.603 402.677 169.382 404.043 169.261C405.404 169.145 412.872 162.355 412.872 162.355L411.816 160.052L405.244 163.462C405.244 163.462 404.648 155.719 404.13 153.874L400.197 157.875L400.192 157.88Z" fill="#FFC8B0"></path>
            <path d="M402.091 158.17C402.788 160.848 404.125 164.97 404.638 165.745C404.866 166.093 409.273 164.359 409.288 162.498L404.721 156.863L402.096 158.17H402.091Z" fill="#F2A181"></path>
            <path d="M406.246 145.719C406.246 145.719 403.98 145.798 402.256 147.195C399.408 149.498 400.086 158.207 400.086 158.207C400.086 158.207 399.945 158.66 401.839 158.544C403.733 158.428 405.249 157.843 405.249 157.843L404.701 150.864L406.251 145.719H406.246Z" fill="#389FE5"></path>
            <g style="mix-blend-mode:multiply">
                <path d="M401.51 150.99C401.51 150.99 401.272 155.998 402.105 158.523C402.929 158.507 403.65 158.301 403.65 158.301L401.515 150.985L401.51 150.99Z" fill="#389FE5"></path>
            </g>
            <path d="M406.154 146.188C406.232 145.618 406.372 144.959 406.857 144.733C406.992 144.67 407.137 144.654 407.283 144.633C408.77 144.453 408.595 144.374 410.087 144.401C410.707 144.411 411.346 144.448 411.898 144.749C412.765 145.218 413.24 146.235 413.661 147.189L406.149 146.188H406.154Z" fill="#389FE5"></path>
            <g style="mix-blend-mode:multiply">
                <g style="mix-blend-mode:multiply">
                    <path d="M406.154 146.188C406.232 145.618 406.372 144.959 406.857 144.733C406.992 144.67 407.137 144.654 407.283 144.633C408.77 144.453 408.595 144.374 410.087 144.401C410.707 144.411 411.346 144.448 411.898 144.749C412.765 145.218 413.24 146.235 413.661 147.189L406.149 146.188H406.154Z" fill="#389FE5"></path>
                </g>
            </g>
            <path d="M400.27 222.382C400.851 219.594 402.338 212.403 403.399 209.351C404.459 206.299 405.927 203.009 405.98 202.509C406.023 202.092 405.636 199.003 405.51 198.007C405.496 197.986 405.486 197.959 405.491 197.938C405.505 197.596 403.946 184.907 403.432 182.983C403.244 182.282 402.323 179.968 402.498 176.494C402.677 173.02 405.215 168.876 405.907 168.122L417.657 167.912C417.657 167.912 419.681 173.125 419.88 176.351C420.287 183.146 419.662 197.453 419.662 197.453L419.638 197.464C419.618 198.46 419.546 200.864 419.269 203.036C418.916 205.856 415.313 228.893 415.313 228.893C415.313 228.893 413.526 229.204 412.111 228.508C412.111 228.508 412.15 228.26 412.136 228.012C412.271 225.234 411.114 216.399 412.136 210.991C413.157 205.582 413.569 204.422 413.569 204.422L412.45 198.518C412.436 198.418 412.412 198.175 412.378 198.175C412.242 199.567 411.942 202.35 411.579 203.827C411.041 205.988 405.912 218.123 403.873 223.347C403.176 225.134 402.546 227.137 402.546 227.137C402.546 227.137 400.1 226.831 399.403 225.656C399.403 225.656 399.756 224.876 400.275 222.388L400.27 222.382Z" fill="#285FAF"></path>
            <path d="M417.487 165.877C417.076 164.997 416.712 161.275 416.858 160.326C417.008 159.309 417.836 158.76 418.209 156.494C418.688 153.573 417.589 151.306 416.974 150.337C416.107 148.961 414.911 146.172 414.664 146.093C411.036 144.891 410.445 145.466 408.004 145.582C406.798 145.64 406.023 145.692 404.837 145.977C403.524 146.293 401.95 146.768 401.679 148.708C401.263 151.707 401.611 154.738 402.449 157.58C403.006 159.462 406.319 165.982 405.496 167.248C405.307 167.537 404.837 168.086 404.784 168.444C404.575 169.762 406.532 170.084 408.484 170.331C410.261 170.553 412.102 170.442 414.102 170.295C419.613 169.889 417.657 166.246 417.487 165.882V165.877Z" fill="#389FE5"></path>
            <path d="M402.207 150.225C404.295 151.591 406.866 151.433 408.648 151.064C408.566 149.514 408.687 146.346 408.687 146.346C408.702 147.479 409.157 150.225 409.273 150.916C410.203 150.679 410.804 150.421 410.804 150.421C410.804 150.421 409.399 142.914 409.399 139.614C409.404 136.778 412.15 134.827 412.15 134.827L407.501 128.285C407.501 128.285 403.83 129.414 402.803 134.221C402.285 136.614 402.207 150.225 402.207 150.225Z" fill="#1F3A71"></path>
            <g style="mix-blend-mode:multiply" opacity="0.35">
                <path d="M406.561 179.509C406.697 180.157 407.123 181.812 408.251 183.426L412.223 199.646C412.223 199.646 412.295 198.966 412.378 198.17C411.089 192.271 409.486 184.49 409.297 183.715C409.031 182.603 407.128 181.934 406.566 179.514L406.561 179.509Z" fill="#5275A0"></path>
            </g>
            <path d="M416.073 155.787C416.073 155.787 421.536 165.329 423.473 165.329C424.883 165.329 432.762 155.086 432.762 155.086L430.094 154.306L423.652 159.135L419.744 152.129L416.078 155.787H416.073Z" fill="#FFC8B0"></path>
            <path d="M435.881 151.517C435.891 151.338 435.881 151.159 435.906 150.979C435.964 150.595 436.206 150.262 436.288 149.883C436.356 149.582 436.322 149.271 436.337 148.966C436.356 148.618 436.555 148.033 436.293 147.99C436.346 147.769 436.424 147.521 436.467 147.3C436.501 147.131 436.492 146.81 436.312 146.836C436.046 146.873 435.755 147.263 435.586 147.442C435.358 147.679 435.014 148.307 434.816 148.57C434.365 149.166 433.833 149.419 433.833 149.419C433.833 149.419 433.959 149.171 433.862 149.05C433.712 148.86 433.227 149.198 432.695 149.282C432.419 149.324 431.745 150.226 431.523 150.484C431.3 150.742 431.087 152.334 431.024 152.661C430.859 153.526 429.861 154.511 429.861 154.511C429.861 154.511 432.143 155.74 432.157 155.745C432.21 155.771 432.462 155.413 432.496 155.371C432.637 155.197 432.816 155.007 433.014 154.917C433.721 154.163 434.767 153.8 435.378 152.925C435.654 152.524 435.852 152.05 435.881 151.549V151.522V151.517Z" fill="#FFC8B0"></path>
            <path d="M433.838 149.414C433.479 149.81 433.16 149.878 432.84 150.063C432.593 150.205 432.583 150.342 432.312 150.484C432.704 150.569 432.699 150.3 433.295 150.063C433.571 149.952 433.857 149.825 433.978 149.535C434.022 149.435 433.92 149.346 433.838 149.414Z" fill="#F2A181"></path>
            <path d="M411.288 145.35C412.45 145.413 416.18 145.692 418.47 149.356C419.754 151.407 421.153 153.821 421.788 155.724C421.483 156.857 419.526 159.156 417.725 159.135C417.633 159.061 414.983 155.524 414.475 152.635L411.288 145.35Z" fill="#389FE5"></path>
            <path d="M399.083 128.433L401.616 129.904L400.352 126.319" fill="#CFEFFE"></path>
            <path d="M396.575 129.683C399.533 129.683 401.931 127.072 401.931 123.852C401.931 120.632 399.533 118.022 396.575 118.022C393.616 118.022 391.218 120.632 391.218 123.852C391.218 127.072 393.616 129.683 396.575 129.683Z" fill="#CFEFFE"></path>
            <path d="M396.265 120.552C397.345 120.447 398.304 121.322 398.396 122.497C398.425 122.84 398.371 123.183 398.236 123.52L398.052 124.021L397.398 125.866L396.705 125.934L396.013 126.003L395.083 124.311L394.807 123.852C394.623 123.546 394.511 123.214 394.487 122.877C394.39 121.701 395.194 120.658 396.274 120.557M396.245 120.231C394.996 120.352 394.075 121.549 394.187 122.909C394.221 123.33 394.356 123.705 394.555 124.037L395.858 126.351L396.739 126.267L397.621 126.182L398.526 123.652C398.667 123.288 398.744 122.893 398.71 122.471C398.599 121.111 397.5 120.109 396.25 120.231H396.245Z" fill="#67C2EF"></path>
            <path d="M396.875 128.09C396.386 128.138 395.955 127.748 395.916 127.215L395.858 126.514L397.626 126.345L397.684 127.047C397.727 127.579 397.369 128.048 396.88 128.09H396.875Z" fill="#67C2EF"></path>
            <path d="M395.499 123.241C395.422 123.241 395.354 123.178 395.349 123.093C395.34 123.004 395.403 122.925 395.485 122.914L397.403 122.73C397.485 122.724 397.558 122.788 397.567 122.877C397.577 122.967 397.514 123.046 397.432 123.056L395.514 123.241H395.499Z" fill="#67C2EF"></path>
            <path d="M396.715 126.256C396.638 126.256 396.57 126.193 396.565 126.109L396.313 123.004C396.303 122.914 396.366 122.835 396.449 122.825C396.531 122.814 396.604 122.883 396.613 122.972L396.865 126.077C396.875 126.167 396.812 126.246 396.73 126.256H396.715Z" fill="#67C2EF"></path>
            <path d="M542.406 197.596L544.319 199.683C544.319 199.683 546.688 197.838 546.678 197.437C546.668 197.042 544.949 195.013 544.469 195.028C543.99 195.044 542.406 197.596 542.406 197.596Z" fill="#FF9A30"></path>
            <path d="M534.672 197.596L532.759 199.683C532.759 199.683 530.39 197.838 530.4 197.437C530.41 197.042 532.129 195.013 532.609 195.028C533.088 195.044 534.672 197.596 534.672 197.596Z" fill="#FF9A30"></path>
            <path d="M537.582 195.477H539.495V193.705H537.582V195.477Z" fill="#153351"></path>
            <path d="M540.543 213.788C545.264 212.584 548.196 207.442 547.09 202.303C545.984 197.164 541.26 193.973 536.539 195.177C531.817 196.38 528.886 201.522 529.991 206.661C531.097 211.801 535.821 214.991 540.543 213.788Z" fill="#FF9A30"></path>
            <g style="mix-blend-mode:screen" opacity="0.3">
                <path d="M546.61 204.897C546.61 208.413 544.871 211.481 542.275 213.141C545.254 211.613 547.317 208.318 547.317 204.491C547.317 199.214 543.389 194.939 538.541 194.939C536.924 194.939 535.403 195.418 534.1 196.251C535.234 195.671 536.498 195.35 537.834 195.35C542.682 195.35 546.615 199.625 546.615 204.902L546.61 204.897Z" fill="#FF9A30"></path>
            </g>
            <g style="mix-blend-mode:multiply" opacity="0.6">
                <path d="M529.761 204.491C529.761 209.768 533.689 214.048 538.537 214.048C540.43 214.048 542.179 213.394 543.612 212.287C542.382 212.973 540.982 213.363 539.491 213.363C534.643 213.363 530.715 209.251 530.715 204.18C530.715 199.108 534.643 194.997 539.491 194.997C539.176 194.96 538.856 194.939 538.532 194.939C533.684 194.939 529.756 199.214 529.756 204.491H529.761Z" fill="#FDD622"></path>
            </g>
            <path d="M538.537 211.623C542.156 211.623 545.089 208.43 545.089 204.491C545.089 200.552 542.156 197.359 538.537 197.359C534.918 197.359 531.984 200.552 531.984 204.491C531.984 208.43 534.918 211.623 538.537 211.623Z" fill="#153351"></path>
            <path d="M538.537 211.027C541.853 211.027 544.542 208.101 544.542 204.491C544.542 200.881 541.853 197.954 538.537 197.954C535.22 197.954 532.531 200.881 532.531 204.491C532.531 208.101 535.22 211.027 538.537 211.027Z" fill="#FFFDFF"></path>
            <path d="M537.2 194.248H539.907C539.907 194.248 540.382 192.994 540.115 192.883C539.849 192.772 537.321 192.73 536.987 192.883C536.657 193.036 537.195 194.248 537.195 194.248H537.2Z" fill="#FF9A30"></path>
            <path d="M538.529 204.933L538.757 204.828C538.868 204.777 538.919 204.638 538.873 204.517L537.094 199.944C537.047 199.824 536.919 199.767 536.808 199.818L536.58 199.923C536.47 199.974 536.418 200.113 536.465 200.234L538.244 204.807C538.291 204.927 538.419 204.984 538.529 204.933Z" fill="#153351"></path>
            <path d="M538.537 205.529C539.063 205.529 539.491 205.064 539.491 204.491C539.491 203.917 539.063 203.452 538.537 203.452C538.01 203.452 537.582 203.917 537.582 204.491C537.582 205.064 538.01 205.529 538.537 205.529Z" fill="#153351"></path>
            <g style="mix-blend-mode:multiply" opacity="0.6">
                <path d="M539.166 212.915C539.374 212.915 539.583 212.904 539.786 212.973C539.801 212.973 539.801 212.999 539.786 213.004C539.583 213.073 539.379 213.057 539.166 213.062C539.084 213.062 539.084 212.92 539.166 212.92V212.915ZM538.241 212.92C538.362 212.962 538.478 212.988 538.6 212.951C538.614 212.951 538.614 212.925 538.6 212.92C538.493 212.883 538.386 212.857 538.285 212.804C538.207 212.762 538.159 212.888 538.241 212.92ZM532.478 199.725C532.589 199.472 532.72 199.235 532.885 199.019C532.952 198.924 532.836 198.792 532.759 198.882C532.579 199.103 532.425 199.346 532.303 199.609C532.24 199.736 532.424 199.852 532.478 199.72V199.725ZM531.698 201.048C531.674 201.196 531.887 201.264 531.911 201.112C531.935 200.948 531.969 200.785 532.003 200.627C532.027 200.511 532.105 200.379 532.085 200.258C532.085 200.258 532.081 200.247 532.076 200.252C531.964 200.295 531.906 200.447 531.853 200.558C531.771 200.716 531.732 200.869 531.703 201.048H531.698ZM534.735 197.369C535.088 197.1 535.437 196.826 535.82 196.594C535.931 196.525 535.853 196.309 535.728 196.362C535.316 196.536 534.904 196.736 534.541 197.01C534.342 197.163 534.531 197.522 534.73 197.369H534.735Z" fill="#FDD622"></path>
            </g>
            <path d="M514.122 221.903C513.125 219.773 512.858 217.19 513.74 214.95C514.248 213.653 514.965 212.372 516.001 211.497C516.907 210.733 517.973 210.19 519.077 209.868C520.98 209.32 523.092 209.499 524.792 210.585C526.211 211.492 527.247 212.957 527.93 214.565C528.598 216.131 528.879 218.076 530.313 219.088C530.725 219.378 531.403 219.494 531.606 220.032C531.848 220.669 531.407 221.307 531.175 221.861C530.899 222.52 530.623 223.184 530.347 223.843C530.148 224.317 529.959 225.134 529.436 225.308C528.933 225.503 528.4 225.029 527.925 224.887C526.685 224.512 525.339 225.039 524.206 225.582C522.908 226.199 520.782 225.878 519.358 225.746C516.718 225.493 515.319 224.454 514.127 221.903H514.122Z" fill="#95E2F9"></path>
            <path d="M531.286 222.498C531.286 222.498 527.286 220.348 525.373 219.172C524.864 218.861 524.341 218.55 523.644 217.875C523.193 217.443 522.288 216.415 522.869 215.735C523.557 214.934 524.366 216.241 524.361 216.968C524.356 217.569 523.881 218.45 523.426 218.803C522.622 219.42 521.387 219.267 520.622 218.75C520.036 218.355 520.365 217.422 521.014 217.469C521.634 217.511 523.382 218.935 522.98 220.079C522.767 220.68 522.317 221.154 521.789 221.439C520.83 221.945 519.59 220.627 520.937 220.158C521.891 219.826 523.116 220.184 524.012 220.564C526.467 221.602 528.366 222.488 530.802 223.574" stroke="white" stroke-width="0.62" stroke-miterlimit="10"></path>
            <path d="M530.274 225.211L532.121 220.722L531.714 220.524L529.868 225.013L530.274 225.211Z" fill="#389FE5"></path>
            <path d="M531.577 225.656C531.524 225.535 531.369 225.951 531.257 225.999L531.204 225.703C531.093 225.745 530.967 225.993 530.909 225.877L530.875 225.809C530.817 225.688 530.666 225.624 530.555 225.677C530.444 225.73 530.298 225.672 530.24 225.55L530.143 225.361C530.109 225.292 530.105 225.208 530.134 225.134L531.969 220.674C531.998 220.6 532.061 220.548 532.129 220.532L532.328 220.485C532.449 220.453 532.584 220.532 532.623 220.658C532.662 220.785 532.802 220.864 532.923 220.832L532.996 220.811C533.112 220.78 533.248 220.848 533.291 220.97L533.306 221.012C533.354 221.133 533.49 221.207 533.606 221.17L533.66 221.154C533.781 221.117 533.921 221.191 533.965 221.317L533.974 221.344C534.023 221.481 534.023 221.623 533.974 221.75L532.323 225.761C532.27 225.888 532.265 225.598 532.139 225.651L531.916 225.134C531.8 225.181 531.776 225.888 531.717 225.767L531.567 225.672L531.577 225.656Z" fill="#67C2EF"></path>
            <path d="M530.676 225.513C530.676 225.513 530.657 225.513 530.647 225.508C530.608 225.492 530.594 225.445 530.608 225.403L531.466 223.326C531.48 223.284 531.524 223.268 531.562 223.284C531.601 223.299 531.616 223.347 531.601 223.389L530.744 225.466C530.729 225.498 530.705 225.513 530.676 225.513Z" fill="#389FE5"></path>
            <path d="M531.911 222.509C531.911 222.509 531.892 222.509 531.882 222.504C531.843 222.488 531.829 222.44 531.843 222.398L532.318 221.244C532.332 221.202 532.376 221.186 532.415 221.202C532.454 221.217 532.468 221.265 532.454 221.307L531.979 222.461C531.964 222.493 531.94 222.509 531.911 222.509Z" fill="#389FE5"></path>
            <path d="M531.737 224.296C531.737 224.296 531.717 224.296 531.708 224.291C531.669 224.275 531.654 224.227 531.669 224.185L532.909 221.17C532.923 221.128 532.972 221.112 533.006 221.128C533.044 221.143 533.059 221.191 533.044 221.233L531.805 224.248C531.79 224.28 531.766 224.296 531.737 224.296Z" fill="#389FE5"></path>
            <path d="M531.141 225.751C531.141 225.751 531.122 225.751 531.112 225.745C531.073 225.73 531.059 225.682 531.073 225.64L531.441 224.749C531.456 224.707 531.499 224.691 531.538 224.707C531.577 224.723 531.591 224.77 531.577 224.812L531.209 225.703C531.194 225.735 531.17 225.751 531.141 225.751Z" fill="#389FE5"></path>
            <path d="M532.657 223.421C532.657 223.421 532.638 223.421 532.628 223.416C532.589 223.4 532.575 223.352 532.589 223.31L533.253 221.697C533.267 221.655 533.311 221.639 533.35 221.655C533.388 221.671 533.403 221.718 533.388 221.76L532.725 223.373C532.71 223.405 532.686 223.421 532.657 223.421Z" fill="#389FE5"></path>
            <path d="M531.96 225.123C531.96 225.123 531.94 225.123 531.931 225.118C531.892 225.102 531.877 225.055 531.892 225.013L532.158 224.364C532.173 224.322 532.216 224.306 532.255 224.322C532.294 224.338 532.308 224.385 532.294 224.428L532.027 225.076C532.013 225.108 531.989 225.123 531.96 225.123Z" fill="#389FE5"></path>
            <path d="M531.698 223.031C531.698 223.031 531.678 223.031 531.669 223.025C531.63 223.01 531.616 222.962 531.63 222.92L531.727 222.688C531.741 222.646 531.784 222.63 531.823 222.646C531.862 222.662 531.876 222.709 531.862 222.751L531.765 222.983C531.751 223.015 531.727 223.031 531.698 223.031Z" fill="#389FE5"></path>
            <g style="mix-blend-mode:multiply" opacity="0.5">
                <g style="mix-blend-mode:multiply">
                    <path d="M514.122 221.903C513.125 219.773 512.858 217.19 513.74 214.95C513.841 214.691 513.948 214.438 514.064 214.185C512.8 217.844 514.374 222.319 517.847 223.869C520.762 225.171 523.445 224.644 526.007 222.093C526.545 221.56 527.141 221.281 527.882 221.513C528.565 221.729 529.126 222.267 529.829 222.435C529.935 222.462 530.047 222.477 530.148 222.435C530.245 222.398 530.318 222.319 530.39 222.24C530.967 221.587 531.34 220.759 531.533 219.873C531.562 219.921 531.587 219.968 531.606 220.021C531.848 220.659 531.407 221.297 531.175 221.85C530.899 222.509 530.623 223.173 530.347 223.832C530.148 224.307 529.959 225.124 529.436 225.298C528.933 225.493 528.4 225.018 527.925 224.876C526.685 224.502 525.339 225.029 524.206 225.572C522.908 226.189 520.782 225.867 519.358 225.735C516.718 225.482 515.319 224.444 514.127 221.892L514.122 221.903Z" fill="#95E2F9"></path>
                </g>
            </g>
            <path d="M510.756 235.292C510.756 236.794 531.349 238.007 556.756 238.007C582.164 238.007 602.757 236.789 602.757 235.292C602.757 233.795 582.164 232.577 556.756 232.577C531.349 232.577 510.756 233.795 510.756 235.292Z" fill="#E6ECEF"></path>
            <path d="M568.419 227.517C568.419 227.517 568.283 231.376 568.467 232.261C568.612 232.957 570.598 233.026 570.84 232.657C571.082 232.288 571.392 227.807 571.392 227.807" fill="#FFBE9D"></path>
            <path d="M571.392 233.279C571.392 233.769 571.615 235.229 571.068 235.229H565.271C563.789 235.229 562.946 235.024 562.907 234.739C562.752 233.579 567.934 231.624 568.428 231.629C568.453 231.629 568.467 231.634 568.491 231.645C568.564 231.671 568.729 231.761 568.855 231.998C569.198 232.641 569.964 232.931 570.584 232.609C570.714 232.541 570.831 232.457 570.932 232.341C570.932 232.341 571.397 232.541 571.397 233.284L571.392 233.279Z" fill="#4C4051"></path>
            <path d="M589.869 228.382C589.869 228.382 590.494 230.211 590.765 230.822C591.036 231.434 592.896 230.68 592.993 230.264C593.09 229.842 591.579 226.7 591.579 226.7" fill="#FFBE9D"></path>
            <path d="M593.85 230.648C594.436 231.924 594.296 232.519 594.112 232.641L592.557 233.658H592.547C592.494 233.695 591.835 234.059 591.327 234.401C590.886 234.702 590.106 235.066 589.598 235.192C588.009 235.593 586.779 235.398 586.653 235.161C586.145 234.196 590.077 230.49 590.528 230.29C590.552 230.279 590.566 230.279 590.591 230.279C590.668 230.279 590.852 230.295 591.041 230.469C591.428 230.817 591.961 230.933 592.392 230.643C592.634 230.479 592.857 230.253 592.969 229.958C592.969 229.958 593.559 230.021 593.85 230.653V230.648Z" fill="#4C4051"></path>
            <path d="M592.16 227.058C592.203 227.169 592.165 227.301 592.077 227.369C590.663 228.476 589.67 228.587 589.67 228.587C589.67 228.587 589.67 228.576 589.661 228.576C589.331 228.012 579.015 210.279 577.035 206.837C576.996 206.763 576.952 206.694 576.918 206.631C576.909 206.621 576.899 206.615 576.899 206.594C576.759 206.352 576.652 206.12 576.579 205.909C576.565 205.867 576.545 205.819 576.531 205.788C576.478 205.645 576.439 205.514 576.424 205.419C576.41 205.345 576.395 205.276 576.386 205.197C576.386 205.187 576.376 205.176 576.376 205.16C576.1 203.632 575.441 201.006 574.642 197.954C574.187 196.225 573.693 194.359 573.199 192.472C572.807 190.996 572.414 189.525 572.056 188.133L569.174 175.94C569.135 175.782 569.242 175.624 569.392 175.613L571.702 175.445C574.637 175.229 578.216 173.621 578.977 173.262C579.069 173.22 579.175 173.246 579.243 173.32C582.604 176.979 581.965 181.57 581.558 183.869C581.558 183.869 581.558 183.879 581.558 183.884C581.374 184.939 581.321 186.019 581.393 187.09C581.626 190.395 582.076 196.562 582.12 200.848V200.859C582.13 200.98 582.289 203.531 584.532 206.563C584.958 207.063 585.365 207.606 585.723 208.202C589.07 213.7 590.305 222.245 592.165 227.064L592.16 227.058Z" fill="#285FAF"></path>
            <g style="mix-blend-mode:multiply" opacity="0.35">
                <path d="M589.656 228.571C589.327 228.007 579.011 210.274 577.03 206.832C576.991 206.758 576.947 206.689 576.914 206.626C576.904 206.615 576.894 206.61 576.894 206.589C576.754 206.347 576.647 206.115 576.575 205.904C576.56 205.862 576.541 205.814 576.526 205.782C576.473 205.64 576.434 205.508 576.42 205.413C576.405 205.34 576.39 205.271 576.381 205.192C576.381 205.182 576.371 205.171 576.371 205.155C576.095 203.637 575.446 201.049 574.657 198.028C574.642 197.975 574.642 197.917 574.662 197.865L579.267 184.417C579.301 184.317 579.393 184.248 579.49 184.248H580.701C580.866 184.248 580.982 184.422 580.929 184.591C580.517 185.94 579.001 190.975 578.323 193.431C577.538 196.273 577.325 200.727 577.253 202.356C577.098 205.935 581.142 212.013 582.299 214.227C583.534 216.6 589.196 227.58 589.656 228.571Z" fill="#5275A0"></path>
            </g>
            <path d="M579.083 186.452C579.427 186.278 580.817 185.424 581.699 182.719C581.737 182.603 581.699 182.472 581.602 182.408C580.26 181.481 570.913 175.123 568.675 175.898C567.988 176.141 566.69 199.804 566.699 200.311C566.704 200.558 566.69 203.126 566.699 203.421C566.845 207.453 568.147 227.517 568.288 229.741C568.298 229.863 568.375 229.958 568.487 229.979C568.845 230.042 569.726 230.168 571.024 230.163C571.116 230.079 571.174 230.021 571.266 229.936C571.852 224.554 574.4 214.417 573.117 208.065C573.102 207.986 573.092 207.907 573.078 207.828C573.068 207.701 573.054 207.538 573.034 207.327C572.724 204.517 572.715 205.34 573.422 201.797C573.422 201.781 573.426 201.771 573.431 201.76C575.01 197.332 577.989 189.261 578.967 186.589C578.991 186.525 579.025 186.483 579.083 186.457V186.452Z" fill="#285FAF"></path>
            <path d="M582.967 158.924C582.958 160.273 582.88 161.618 582.783 162.914C582.653 164.501 582.473 166.014 582.289 167.385C581.854 170.653 581.374 173.078 581.422 173.663C581.456 174.021 581.577 174.375 581.728 174.707C581.931 175.186 581.582 175.513 581.582 175.513C581.384 175.608 581.175 175.693 580.962 175.782C575.727 177.864 568.017 176.093 568.017 176.093C567.697 176.12 567.377 175.845 567.503 175.186C567.6 174.691 568.08 172.266 568.065 171.76C568.046 171.286 568.172 169.683 568.419 167.458C568.506 166.668 568.608 165.808 568.729 164.886C568.826 164.106 568.942 163.289 569.058 162.44C569.203 161.454 569.319 160.489 569.441 159.551C569.571 158.486 569.697 157.453 569.833 156.436C570.085 154.675 570.37 152.983 570.806 151.343C571.16 149.989 571.62 148.665 572.23 147.379C573.688 144.322 577.224 143.842 577.834 143.784C577.892 143.779 577.95 143.789 577.994 143.826C580.628 145.745 581.975 149.04 582.565 152.777C582.88 154.754 582.982 156.852 582.958 158.924H582.967Z" fill="#389FE5"></path>
            <path opacity="0.08" d="M577.722 150.916C577.514 153.763 576.541 162.941 572.516 167.016C572.497 167.031 572.482 167.047 572.463 167.058C572.254 167.179 571.005 167.833 568.661 167.495C568.53 167.474 568.433 167.348 568.448 167.205C568.603 165.819 568.806 164.216 569.048 162.508C569.053 162.466 569.073 162.424 569.097 162.387L570.104 154.696C570.104 154.696 571.131 150.974 572.506 149.472C573.378 148.523 577.291 150.737 577.291 150.737C577.437 150.532 577.742 150.653 577.722 150.911V150.916Z" fill="black"></path>
            <path d="M557.846 179.161C557.846 179.161 556.771 179.704 556.388 180.537H557.928" fill="#F2A181"></path>
            <path d="M548.373 207.369L548.392 224.807L532.042 224.828V207.385L548.373 207.369Z" fill="#FDCF33"></path>
            <path d="M532.042 207.369V224.807L528.23 224.812L528.216 207.374L532.042 207.369Z" fill="#FFD86C"></path>
            <path d="M550.465 211.781H534.11L532.042 207.369H548.392L550.465 211.781Z" fill="#F4BF2A"></path>
            <path d="M515.682 226.009H553.613C554.839 226.009 555.836 224.923 555.836 223.59V182.087C555.836 181.76 556.083 181.491 556.384 181.491H562.888C563.203 181.491 563.459 181.212 563.459 180.869C563.459 180.526 563.203 180.247 562.888 180.247H556.384C555.449 180.247 554.693 181.075 554.693 182.087V223.59C554.693 224.238 554.209 224.765 553.613 224.765H515.682C515.367 224.765 515.11 225.044 515.11 225.387C515.11 225.73 515.367 226.009 515.682 226.009Z" fill="#C1CED6"></path>
            <path d="M552.533 232.242C553.274 229.903 552.133 227.352 549.984 226.545C547.835 225.738 545.491 226.979 544.75 229.319C544.008 231.658 545.149 234.209 547.298 235.016C549.447 235.824 551.791 234.582 552.533 232.242Z" fill="#B3EAFF"></path>
            <path d="M548.625 233.052C549.791 233.052 550.736 232.023 550.736 230.754C550.736 229.484 549.791 228.455 548.625 228.455C547.459 228.455 546.513 229.484 546.513 230.754C546.513 232.023 547.459 233.052 548.625 233.052Z" fill="white"></path>
            <path d="M525.854 232.456C526.728 230.172 525.736 227.548 523.637 226.597C521.538 225.645 519.128 226.725 518.254 229.009C517.379 231.294 518.372 233.917 520.47 234.869C522.569 235.821 524.979 234.74 525.854 232.456Z" fill="#B3EAFF"></path>
            <path d="M519.949 230.754C519.949 232.024 520.893 233.052 522.06 233.052C523.227 233.052 524.172 232.024 524.172 230.754C524.172 229.483 523.227 228.455 522.06 228.455C520.893 228.455 519.949 229.483 519.949 230.754Z" fill="white"></path>
            <path d="M576.797 152.767C576.996 151.633 577.093 150.8 577.073 150.5C576.846 148.186 574.599 148.608 574.192 148.887C573.722 149.198 572.545 150.2 571.223 154.464C570.312 157.4 569.77 159.667 569.431 161.08C569.324 161.502 569.174 162.013 569.053 162.445L571.76 166.673C573.983 165.155 576.071 156.921 576.797 152.767Z" fill="#FFBE9D"></path>
            <path d="M567.586 165.798C566.399 167.675 562.06 174.981 560.103 177.627L561.604 178.913C561.667 178.803 561.73 178.682 561.808 178.566C561.813 178.555 562.471 178.086 562.486 178.075C563.798 176.51 565.266 175.186 567.368 172.862C569.542 170.447 571.552 167.917 572.366 166.362C572.458 166.183 573.649 164.106 573.664 163.869L569.329 161.496C569.392 161.591 568.453 164.443 567.591 165.803L567.586 165.798Z" fill="#FFBE9D"></path>
            <path d="M560.689 176.794C560.689 176.794 559.992 177.833 559.527 178.091C559.067 178.349 558.384 178.898 557.924 179.103C557.464 179.309 556.548 181.702 556.839 181.997C557.125 182.293 558.892 182.793 559.953 182.229C560.965 181.686 560.587 180.948 560.839 180.5C561.459 179.383 562.476 178.07 562.476 178.07L562.127 177.316L560.689 176.789V176.794Z" fill="#FFBE9D"></path>
            <path d="M578.057 143.821C577.95 144.026 577.819 144.216 577.664 144.374L577.655 144.385C576.715 145.376 575.044 145.56 574.327 145.592C574.168 145.597 574.051 145.444 574.085 145.276C574.143 144.949 574.168 144.364 573.911 143.457C573.872 143.315 573.722 143.241 573.596 143.294C572.385 143.784 571.233 144.021 570.501 143.71C570.463 143.694 570.429 143.668 570.4 143.631C569.886 143.03 569.45 142.302 569.082 141.501C569.039 141.401 568.942 141.343 568.84 141.359C568.501 141.412 568.017 141.422 567.915 141.116C567.784 140.721 568.031 139.324 568.133 138.802C568.133 138.786 568.123 138.765 568.118 138.744C568.138 138.359 568.244 137.885 568.128 137.416C568.099 137.289 567.847 137.142 567.784 137.042C567.256 136.14 567.029 134.912 566.961 134.48C566.946 134.379 566.98 134.29 567.053 134.232C567.571 133.826 569.644 132.208 569.809 132.171C570.002 132.123 574.768 131.169 574.933 131.243C575.097 131.317 577.509 134.4 577.824 137.758C577.945 139.061 577.693 140.025 577.316 140.732C577.316 140.732 577.267 143.088 578.052 143.815L578.057 143.821Z" fill="#FFBE9D"></path>
            <path d="M570.555 155.049C571.402 156.166 574.778 157.416 576.182 157.521C576.967 155.302 579.529 148.127 576.676 146.883C573.528 145.507 571.635 150.832 570.555 155.054V155.049Z" fill="#389FE5"></path>
            <g style="mix-blend-mode:multiply" opacity="0.5">
                <path d="M577.655 144.39C576.715 145.381 575.044 145.566 574.327 145.597C574.168 145.603 574.051 145.45 574.085 145.281C574.148 144.944 574.168 144.332 573.887 143.378C573.858 143.273 573.887 143.157 573.964 143.088C574.168 142.914 574.569 142.545 574.918 142.118C575.068 141.934 575.344 142.055 575.335 142.303L575.233 144.669C575.228 144.812 575.32 144.933 575.451 144.944C575.911 144.986 576.962 144.996 577.65 144.39H577.655Z" fill="#FFBE9D"></path>
            </g>
            <path d="M567.479 135.702C569.208 136.783 572.124 135.718 572.855 136.187C573.586 136.651 573.858 138.618 574.192 138.676C574.55 138.739 574.468 138.148 574.424 137.431C574.381 136.715 574.274 135.903 575.432 136.14C575.945 136.24 576.245 137.858 576.613 139.124C576.894 140.083 577.117 140.526 577.277 140.721C577.383 140.853 577.582 140.821 577.659 140.673C579.524 137.136 579.151 129.313 574.197 129.366C574.143 129.366 574.095 129.35 574.051 129.313C573.77 129.071 572.545 128.122 570.995 128.301C570.986 128.301 570.971 128.301 570.961 128.301C569.552 128.459 565.372 129.988 564.646 131.506C563.794 133.299 566.583 135.138 567.474 135.697L567.479 135.702Z" fill="#153351"></path>
            <g opacity="0.6">
                <path d="M580.895 127.305L578.793 128.523L579.844 125.55" fill="#389FE5"></path>
                <path d="M582.972 128.338C585.425 128.338 587.413 126.174 587.413 123.504C587.413 120.835 585.425 118.67 582.972 118.67C580.52 118.67 578.531 120.835 578.531 123.504C578.531 126.174 580.52 128.338 582.972 128.338Z" fill="#389FE5"></path>
            </g>
            <path opacity="0.5" d="M585.433 124C585.481 123.8 585.51 123.589 585.51 123.373C585.51 123.172 585.486 122.977 585.447 122.788L585.04 122.835C584.992 122.608 584.91 122.392 584.803 122.197L585.128 121.918C585.031 121.739 584.914 121.57 584.774 121.417C584.721 121.359 584.663 121.301 584.604 121.248C584.59 121.232 584.575 121.222 584.556 121.206C584.488 121.148 584.42 121.101 584.348 121.053L584.091 121.406C584.091 121.406 584.048 121.38 584.028 121.364C584.004 121.348 583.98 121.333 583.956 121.322C583.815 121.243 583.665 121.18 583.51 121.132L583.554 120.684C583.369 120.631 583.176 120.6 582.977 120.6C582.793 120.6 582.614 120.626 582.44 120.668L582.483 121.116C582.275 121.169 582.076 121.259 581.897 121.369L581.64 121.016C581.476 121.122 581.321 121.248 581.18 121.401C581.05 121.543 580.938 121.702 580.846 121.865L581.166 122.144C581.054 122.339 580.972 122.55 580.919 122.777L580.512 122.73C580.464 122.93 580.435 123.141 580.435 123.357C580.435 123.557 580.459 123.752 580.498 123.942L580.904 123.895C580.953 124.121 581.035 124.337 581.142 124.532L580.822 124.812C580.919 124.991 581.035 125.16 581.176 125.313C581.306 125.455 581.452 125.576 581.602 125.676L581.858 125.328C582.038 125.45 582.231 125.539 582.44 125.603L582.396 126.045C582.58 126.098 582.774 126.13 582.972 126.13C583.156 126.13 583.336 126.103 583.51 126.061L583.466 125.624C583.675 125.571 583.873 125.481 584.052 125.365L584.309 125.713C584.474 125.608 584.629 125.481 584.769 125.328C584.9 125.186 585.011 125.028 585.103 124.865L584.784 124.585C584.895 124.39 584.977 124.179 585.031 123.953L585.438 124H585.433ZM584.275 123.42C584.256 124.163 583.699 124.77 583.016 124.791C582.26 124.817 581.645 124.148 581.67 123.325C581.689 122.582 582.246 121.976 582.929 121.955C583.684 121.928 584.299 122.598 584.275 123.42Z" fill="white"></path>
            <path d="M462.073 28.9069C461.599 29.1178 461.235 29.608 461.148 30.1563C461.061 30.7045 461.255 31.3002 461.637 31.6692C461.197 31.685 460.901 32.2333 460.954 32.713C461.008 33.1927 461.303 33.588 461.608 33.9412C461.957 34.3419 462.378 34.7425 462.887 34.7531C463.255 34.7583 463.599 34.558 463.87 34.2892C464.064 34.0941 464.228 33.8622 464.325 33.5986C464.437 33.2981 464.466 32.9713 464.49 32.6444C464.577 31.5058 464.664 30.3724 464.756 29.2338C464.776 29.0018 464.78 28.7382 464.635 28.5748" fill="#153351"></path>
            <path d="M471.072 36.4136C471.139 37.8896 471.043 40.4621 471.435 40.8469C471.822 41.2265 474.559 41.2159 474.559 41.2159C474.559 41.2159 468.592 47.3414 468.19 47.0041C467.788 46.6667 462.485 41.9592 463.676 41.7167C464.868 41.4742 466.035 41.527 466.001 40.8522C465.967 40.1827 465.933 39.508 465.899 38.8385" fill="#FFBE9D"></path>
            <g style="mix-blend-mode:multiply" opacity="0.5">
                <g style="mix-blend-mode:multiply">
                    <path d="M471.072 36.4136C471.139 37.8896 471.043 40.4621 471.435 40.8469C471.822 41.2265 474.559 41.2159 474.559 41.2159C474.559 41.2159 468.592 47.3414 468.19 47.0041C467.788 46.6667 462.485 41.9592 463.676 41.7167C464.868 41.4742 466.035 41.527 466.001 40.8522C465.967 40.1827 465.933 39.508 465.899 38.8385" fill="#FFBE9D"></path>
                </g>
            </g>
            <path d="M479.784 58.6753L477.106 68.2695L476.181 69.3713C476.181 69.3713 468.161 70.3623 465.71 70.4835C465.604 70.4888 465.507 70.4941 465.42 70.4941C463.405 70.5415 463.507 69.3976 463.507 69.3976C463.487 68.8863 463.453 68.2221 463.41 67.4788C463.24 64.7323 462.94 60.8841 462.611 59.3712C462.223 57.5683 462.049 56.9041 461.71 55.1961C460.959 51.3953 460.993 50.6731 460.194 45.9815L465.42 41.4111C465.42 41.4111 465.962 43.1612 468.151 43.1876C471.081 43.2298 471.992 40.9946 471.992 40.9946L479.116 46.1502L479.784 58.6753Z" fill="#B0EEFF"></path>
            <path d="M471.169 35.0746C471.009 35.8179 470.805 36.5507 470.553 37.2623C470.093 38.5697 469.41 39.0388 468.142 39.0704C467.25 39.0915 466.354 39.1179 465.463 39.139C464.776 39.1548 463.923 39.1812 463.371 38.6593C462.824 38.1427 462.809 37.2676 462.688 36.5454C462.533 35.6229 462.407 34.7004 462.31 33.7726C462.122 31.9539 462.039 30.1194 462.073 28.2849C462.073 28.0319 462.083 27.7788 462.131 27.5364C462.151 27.4362 462.18 27.3308 462.247 27.2622C462.33 27.1726 462.456 27.1463 462.567 27.1252C464.238 26.8352 465.938 26.7193 467.633 26.772C468.829 26.8089 470.098 26.9618 471.043 27.7578C471.997 28.559 472.447 29.8611 472.854 31.0946C472.922 31.295 472.97 31.5585 472.81 31.6798" fill="#FFBE9D"></path>
            <path d="M452.028 101.454C452.028 101.454 452.309 103.283 452.532 103.911C452.755 104.538 454.644 103.958 454.765 103.558C454.891 103.152 454.169 100.178 454.169 100.178" fill="#ED9C80"></path>
            <path d="M455.424 104.069C455.588 104.743 455.792 106.04 455.792 106.04L453.908 106.936L453.598 106.62C453.598 106.62 453.128 107.237 452.552 107.527C452.12 107.743 451.195 108.022 450.726 108.075C449.079 108.27 447.868 107.933 447.771 107.685C447.365 106.646 449.549 106.367 449.98 106.246C451.225 105.887 451.917 104.738 452.048 103.989C452.145 103.446 452.019 103.352 452.3 103.367C452.3 103.367 452.542 103.352 452.769 103.61C453.118 104 453.641 104.179 454.111 103.947C454.377 103.815 454.629 103.62 454.779 103.341C454.779 103.341 455.259 103.399 455.424 104.074V104.069Z" fill="#1F3A71"></path>
            <path d="M465.71 70.4834L460.359 77.5314C460.146 77.5789 459.932 77.6211 459.719 77.658C458.344 77.9057 456.833 78.0375 455.327 78.0586C453.738 78.085 452.154 77.9848 450.735 77.7792C451.152 79.0813 452.174 80.7471 452.561 82.5763C453.845 88.6175 454.29 96.7356 454.62 101.754C454.62 101.754 454 103.04 452.024 102.06C449.074 94.1262 443.921 78.0428 443.969 74.5583C443.979 73.7359 444.386 72.9821 445.117 72.2968C445.156 72.2546 445.195 72.223 445.234 72.1861C446.047 71.4639 447.224 70.8155 448.692 70.2515C448.735 70.2409 448.774 70.2198 448.817 70.204C452.314 68.8703 457.395 67.9742 463.022 67.5103C463.066 67.5103 463.11 67.5103 463.153 67.4997C463.235 67.4945 463.323 67.4839 463.41 67.4786C463.453 68.2272 463.487 68.8861 463.507 69.3975C463.507 69.3975 463.405 70.5414 465.42 70.494C465.507 70.494 465.604 70.4887 465.71 70.4834Z" fill="#285FAF"></path>
            <g style="mix-blend-mode:multiply" opacity="0.35">
                <g style="mix-blend-mode:multiply">
                    <path d="M465.71 70.4836L460.359 77.5317C460.146 77.5791 459.932 77.6213 459.719 77.6582C458.242 77.9323 456.789 78.0588 455.327 78.0588C455.167 77.7267 455.022 77.3841 454.954 77.0203C454.862 76.5353 454.91 76.0293 454.833 75.5443C454.682 74.5954 454.053 73.7889 453.297 73.2934C452.542 72.7926 451.66 72.5606 450.789 72.4077C448.822 72.0651 445.471 72.2707 445.117 72.297H445.088C445.137 72.2601 445.185 72.218 445.234 72.1863C446.217 71.422 447.398 70.7841 448.692 70.2517C448.735 70.2411 448.774 70.2201 448.817 70.2042C453.467 68.3328 459.53 67.7635 463.022 67.5105C463.066 67.5105 463.11 67.5105 463.153 67.4999C463.24 67.4947 463.327 67.4894 463.41 67.4841C463.453 68.2274 463.487 68.8864 463.507 69.3977C463.507 69.3977 463.405 70.5416 465.42 70.4942C465.507 70.4942 465.604 70.4889 465.71 70.4836Z" fill="#5275A0"></path>
                </g>
            </g>
            <path d="M456.896 105.676C456.896 105.676 456.881 107.532 457.002 108.191C457.123 108.85 459.07 108.639 459.259 108.265C459.448 107.89 459.211 104.822 459.211 104.822" fill="#ED9C80"></path>
            <path d="M459.821 108.892C459.874 109.588 459.87 110.9 459.87 110.9L457.869 111.422L457.613 111.053C457.613 111.053 457.056 111.575 456.436 111.749C455.98 111.881 455.022 111.981 454.552 111.949C452.9 111.828 451.762 111.269 451.704 111.006C451.467 109.909 453.661 110.046 454.106 110.004C455.39 109.888 456.252 108.887 456.504 108.175C456.683 107.658 456.576 107.542 456.852 107.611C456.852 107.611 457.094 107.643 457.278 107.938C457.559 108.391 458.049 108.665 458.543 108.523C458.828 108.444 459.104 108.301 459.298 108.054C459.298 108.054 459.763 108.201 459.816 108.897L459.821 108.892Z" fill="#1F3A71"></path>
            <path d="M478.491 68.2695C479.276 70.2568 479.794 73.8573 479.005 75.3966C478.312 76.7461 477.988 77.5843 476.806 78.006C471.769 79.8247 466.999 79.0761 461.458 78.2748C463.807 85.1753 460.402 99.9619 459.874 106.23C457.743 107.258 456.537 106.166 456.537 106.166C456.78 93.4094 454.169 75.5863 455.748 72.5394C456.707 70.6838 468.18 68.2378 468.408 68.2695" fill="#285FAF"></path>
            <path d="M469.701 32.8343C469.798 32.3967 470.423 32.3651 470.708 32.692C470.994 33.0188 471.023 33.5143 471.038 33.9624C471.057 34.5212 470.805 35.0905 470.534 35.5649C470.263 36.0394 469.861 36.3135 469.488 35.9234C469.459 36.7405 470.059 37.3994 470.587 37.4363C471.11 37.4732 471.633 37.0779 471.788 36.5296C474.055 37.4363 474.772 33.8622 474.912 32.0752C475.019 30.673 474.593 28.9703 473.89 27.7947C473.508 27.1516 472.931 26.6192 472.249 26.4452C472.181 25.5385 471.571 24.7636 470.844 24.3102C470.118 23.8569 469.464 23.6513 468.645 23.4721C468.137 23.3614 466.761 23.762 466.505 24.326C465.541 23.7251 464.684 24.305 463.918 24.3998C463.153 24.5 462.301 25.2696 462.63 26.0287C461.429 25.6334 460.126 27.1199 460.485 28.4273C460.843 29.7346 462.582 30.246 463.545 29.3656C463.899 30.2196 464.795 30.7046 465.652 30.7099C466.514 30.7099 467.338 30.3145 468.059 29.8084C467.817 30.2934 467.74 30.9523 467.972 31.5164C468.205 32.0805 468.398 32.4969 469.163 32.3229C469.163 32.3229 469.096 33.6197 469.367 33.4985C469.638 33.3773 469.701 32.8237 469.701 32.8237V32.8343Z" fill="#153351"></path>
            <path d="M454.363 65.0378C457.419 60.246 459.051 56.4663 461.71 51.4003L465.42 41.4055C465.42 41.4055 464.17 41.4793 463.928 41.5004C462.887 41.59 461.826 41.7376 460.838 42.1383C459.419 42.7076 457.956 43.7566 457.269 45.2643C456.654 46.6085 456.276 48.0687 455.758 49.4551C455.176 51.005 454.557 52.539 453.937 54.073C452.702 57.1147 451.438 60.1458 450.396 63.2771" fill="#B0EEFF"></path>
            <g style="mix-blend-mode:multiply">
                <path d="M461.197 52.3864L460.703 49.1444L457.041 57.8688L458.257 58.1903L461.197 52.3864Z" fill="#B0D9EF"></path>
            </g>
            <path d="M478.772 45.9814C478.961 49.9508 478.981 53.9361 478.782 57.9055C478.583 61.8855 477.968 65.797 477.644 69.7559C477.624 69.9826 477.954 70.0248 478.002 69.8086C478.85 66.0448 479.068 62.0121 479.252 58.1586C479.445 54.0995 479.407 50.0404 479.145 45.9814C479.131 45.7231 478.758 45.7178 478.772 45.9814Z" fill="black"></path>
            <path d="M445.926 70.2567H474.186V69.1497H445.926V70.2567Z" fill="#AABDE2"></path>
            <path d="M440.884 70.2619H463.507L459.448 55.8653C459.225 55.0693 458.547 54.5264 457.787 54.5264H437.974C437.213 54.5264 436.671 55.3224 436.894 56.1131L440.88 70.2566L440.884 70.2619Z" fill="#AABDE2"></path>
            <path d="M440.599 70.262H462.882L458.823 55.8655C458.601 55.0695 457.927 54.5265 457.162 54.5265H437.349C436.589 54.5265 436.046 55.3225 436.269 56.1132L440.153 69.9035C440.211 70.1144 440.39 70.2567 440.594 70.2567L440.599 70.262Z" fill="#E1E8F9"></path>
            <path d="M450.982 62.5552C450.982 63.9258 449.96 65.038 448.701 65.038C447.442 65.038 446.42 63.9258 446.42 62.5552C446.42 61.1846 447.442 60.0723 448.701 60.0723C449.96 60.0723 450.982 61.1846 450.982 62.5552Z" fill="#AABDE2"></path>
            <g style="mix-blend-mode:multiply">
                <g style="mix-blend-mode:multiply">
                    <path d="M475.721 48.5909C474.554 54.3263 474.186 60.9368 473.861 65.038C469.493 65.3912 468.268 67.2152 464.262 69.1551C464.262 69.1551 461.1 68.5858 460.77 69.8826C460.577 70.6311 464.47 71.2268 464.47 71.2268C468.18 71.2479 477.174 69.3554 477.833 69.1551C478.496 68.9548 481.218 54.3579 481.296 47.0094C481.305 45.9657 481.271 44.8323 480.676 44.0205C480.361 43.5935 479.915 43.2983 479.47 43.0505C476.859 41.5956 474.927 41.2002 471.997 40.9999" fill="#B0D9EF"></path>
                </g>
            </g>
            <path d="M464.81 70.0407C464.369 69.4398 463.57 69.3502 462.863 69.3713C462.339 69.3871 461.816 69.4292 461.298 69.5083C461.061 69.5452 460.79 69.6032 460.765 69.8826C460.741 70.162 461.913 69.8826 462.528 70.0776C461.322 70.1883 460.116 70.2252 458.906 70.1831C458.765 70.1831 458.62 70.1725 458.489 70.2305C458.358 70.2885 458.247 70.4203 458.257 70.5732C458.262 70.6944 458.339 70.7946 458.421 70.8736C458.76 71.2057 459.221 71.3323 459.666 71.4219C461.511 71.7751 463.453 71.7118 465.168 70.8947" fill="#ED9C80"></path>
            <path d="M475.721 48.5908C475.624 54.7216 474.82 60.2883 474.932 66.4191C470.563 66.7723 468.34 67.6948 464.34 69.6348C464.34 69.6348 464.102 70.4993 464.47 71.232C464.776 71.3533 477.542 70.7681 478.593 69.7138C479.537 68.765 481.218 54.3632 481.296 47.0199C481.305 45.9762 481.271 44.8428 480.676 44.031C480.361 43.604 479.915 43.3088 479.47 43.061C476.859 41.6061 474.927 41.2107 471.997 41.0104" fill="#B0EEFF"></path>
            <path d="M462.853 32.5443C462.853 32.5443 461.506 35.1168 461.71 35.4489C461.918 35.781 463.502 35.4489 463.502 35.4489" fill="#FFBE9D"></path>
            <g opacity="0.5">
                <path d="M455.729 25.0746L457.448 26.0709L456.591 23.6355" fill="#389FE5"></path>
                <path d="M457.448 21.9592C457.448 24.1468 455.821 25.9181 453.811 25.9181C451.801 25.9181 450.174 24.1468 450.174 21.9592C450.174 19.7715 451.801 18.0002 453.811 18.0002C455.821 18.0002 457.448 19.7715 457.448 21.9592Z" fill="#389FE5"></path>
            </g>
            <path d="M452.28 21.585L453.384 23.0768L455.346 20.8417" stroke="white" stroke-width="0.75" stroke-linecap="round" stroke-linejoin="round"></path>
        </svg>