<svg xmlns="http://www.w3.org/2000/svg" width="1408" height="3567" fill="none">
  <g fill="#fff" fill-rule="evenodd" clip-rule="evenodd">
    <path d="M-2827.38 1256.13-324.127-178.498c141.95-81.301 319.95-44.851 424.554 80.136 315.129 376.588 790.77 617.025 1324.083 617.025 533.83 0 1009.85-240.849 1325.03-617.942 104.49-125.069 282.34-161.656 424.44-80.444L5690.03 1259.79c166.67 95.52 213.92 309.98 106.28 467.9-122.08 179.1-255.1 350.29-398.11 512.69-378.96 430.07-836.55 785.96-1335.94 1072.05l-335.17 192.14-20.9 10.9c-19.71 9.26-39.43 18.46-59.34 27.6-104.37 47.76-227.86 22.4-305.32-61.59-474.49-514.05-1157.27-837.12-1917.02-837.12-757.669 0-1438.832 321.35-1913.258 833.13-77.152 83.32-199.666 107.8-303.165 59.93l-1.868-.89-391.949-224.22c-629.48-360.18-1191.12-831.82-1621.76-1410.9-45.01-60.54-88.62-122.08-131-184.5-105.28-155.31-52.62-367.06 111.11-460.78z" opacity=".05"/>
    <path d="m-4346.38 2036.87 2503.25 1434.63c141.95 81.3 319.95 44.85 424.56-80.14 315.13-376.59 790.767-617.02 1324.083-617.02 533.829 0 1009.852 240.85 1325.027 617.94 104.49 125.07 282.34 161.66 424.44 80.44l2516.05-1439.51c166.67-95.52 213.92-309.98 106.28-467.9-122.08-179.1-255.1-350.29-398.11-512.69-378.96-430.07-836.55-785.956-1335.94-1072.046l-335.17-192.148-20.9-10.895c-19.71-9.258-39.43-18.461-59.34-27.603-104.37-47.761-227.86-22.398-305.32 61.588C1348.04 325.572 665.265 648.638-94.487 648.638c-757.672 0-1438.833-321.353-1913.263-833.131-77.15-83.321-199.66-107.8-303.16-59.929l-1.87.89-391.95 224.222c-629.48 360.18-1191.12 831.823-1621.76 1410.9-45.01 60.54-88.62 122.08-131 184.5-105.28 155.31-52.62 367.06 111.11 460.78z" opacity=".05"/>
  </g>
</svg>
