<svg width="31" height="31" viewBox="0 0 31 31" fill="none" xmlns="http://www.w3.org/2000/svg">
<path d="M15.5 0C6.93948 0 0 6.93948 0 15.5C0 24.0605 6.93948 31 15.5 31C24.0605 31 31 24.0605 31 15.5C31 6.93948 24.0605 0 15.5 0ZM11.7057 21.9244H8.56698V11.8236H11.7057V21.9244ZM10.117 10.5836C9.12562 10.5836 8.48464 9.88125 8.48464 9.0126C8.48464 8.1262 9.145 7.44484 10.1573 7.44484C11.1697 7.44484 11.7897 8.1262 11.8091 9.0126C11.8091 9.88125 11.1697 10.5836 10.117 10.5836ZM23.1693 21.9244H20.0305V16.3267C20.0305 15.0237 19.5752 14.1389 18.4402 14.1389C17.5731 14.1389 17.0581 14.7379 16.8304 15.3143C16.7465 15.5194 16.7255 15.81 16.7255 16.099V21.9228H13.5851V15.0447C13.5851 13.7837 13.5447 12.7294 13.5028 11.822H16.2298L16.3735 13.2251H16.4365C16.8498 12.5663 17.8621 11.5943 19.5558 11.5943C21.6209 11.5943 23.1693 12.978 23.1693 15.9521V21.9244Z" fill="url(#paint0_linear_11_1398)"/>
<defs>
<linearGradient id="paint0_linear_11_1398" x1="15.5" y1="0" x2="15.5" y2="31" gradientUnits="userSpaceOnUse">
<stop stop-color="#1FA2FF"/>
<stop offset="1" stop-color="#12D8FA"/>
</linearGradient>
</defs>
</svg>
