<svg xmlns="http://www.w3.org/2000/svg" xmlns:xlink="http://www.w3.org/1999/xlink" id="Слой_1" data-name="Слой 1" viewBox="0 0 2825.55 2000" style="&#10;"><defs><style>.cls-1{fill:none;}.cls-2,.cls-3,.cls-39,.cls-5,.cls-7,.cls-8{opacity:0.95;}.cls-2{fill:url(#linear-gradient);}.cls-3{fill:url(#linear-gradient-2);}.cls-4{fill:#96bfe6;}.cls-5{fill:url(#linear-gradient-3);}.cls-6{fill:#4598e6;}.cls-33,.cls-7{fill:#fff;}.cls-8{fill:url(#linear-gradient-4);}.cls-9{fill:#344052;}.cls-10{fill:#eea886;}.cls-11{fill:#3480b5;}.cls-12{fill:#393d63;}.cls-13{fill:#eea987;}.cls-14{fill:#a77860;}.cls-15{fill:#163342;}.cls-16{fill:#1d3b54;}.cls-17{fill:#eddad3;}.cls-18{fill:#d6c5be;}.cls-19{fill:#fae6de;}.cls-20{fill:#e65353;}.cls-21{fill:#b84343;}.cls-22{fill:#424242;}.cls-23{fill:#4f544f;}.cls-24{fill:#c24646;}.cls-25{fill:#754836;}.cls-26{fill:#cf8c6c;}.cls-27{fill:#db9c7c;}.cls-28{fill:#162d40;}.cls-29{fill:#eb4747;}.cls-30{fill:#524b49;}.cls-31{fill:#872929;}.cls-32{fill:#292c47;}.cls-34{fill:#424773;}.cls-35{fill:#3a3f47;}.cls-36{fill:#e2d2ca;}.cls-37{fill:#323657;}.cls-38{fill:#702222;}.cls-40{fill:url(#linear-gradient-5);}.cls-41{fill:url(#linear-gradient-6);}.cls-42{fill:url(#linear-gradient-7);}.cls-43{fill:url(#linear-gradient-8);}.cls-44{fill:url(#linear-gradient-9);}.cls-45{fill:url(#linear-gradient-10);}.cls-46{fill:url(#linear-gradient-11);}.cls-47{fill:url(#linear-gradient-12);}.cls-48{fill:url(#linear-gradient-13);}.cls-49{fill:url(#linear-gradient-14);}.cls-50{fill:url(#linear-gradient-15);}</style><linearGradient id="linear-gradient" x1="1412.77" y1="2528.9" x2="1412.77" y2="1574.49" gradientUnits="userSpaceOnUse"><stop offset="0" stop-color="#d1d7e0"/><stop offset="1" stop-color="#fff"/></linearGradient><linearGradient id="linear-gradient-2" x1="1561.38" y1="1443.02" x2="1520.19" y2="696.46" gradientUnits="userSpaceOnUse"><stop offset="0" stop-color="#d1d7e0"/><stop offset="1" stop-color="#ebebff"/></linearGradient><linearGradient id="linear-gradient-3" x1="2235.15" y1="1651.15" x2="2235.15" y2="882.56" xlink:href="#linear-gradient-2"/><linearGradient id="linear-gradient-4" x1="2033.01" y1="701.4" x2="2033.01" y2="384.82" xlink:href="#linear-gradient-2"/><linearGradient id="linear-gradient-5" x1="2449" y1="580.57" x2="2488.37" y2="580.57" xlink:href="#linear-gradient-2"/><linearGradient id="linear-gradient-6" x1="2434.9" y1="580.57" x2="2451.31" y2="580.57" xlink:href="#linear-gradient-2"/><linearGradient id="linear-gradient-7" x1="2335.94" y1="562.57" x2="2462.04" y2="562.57" xlink:href="#linear-gradient-2"/><linearGradient id="linear-gradient-8" x1="1754.27" y1="177.25" x2="1805.99" y2="177.25" xlink:href="#linear-gradient-2"/><linearGradient id="linear-gradient-9" x1="1754.27" y1="214.62" x2="1805.99" y2="214.62" xlink:href="#linear-gradient-2"/><linearGradient id="linear-gradient-10" x1="1754.27" y1="252" x2="1805.99" y2="252" xlink:href="#linear-gradient-2"/><linearGradient id="linear-gradient-11" x1="1827.34" y1="177.25" x2="1842.06" y2="177.25" xlink:href="#linear-gradient-2"/><linearGradient id="linear-gradient-12" x1="1827.34" y1="214.62" x2="1842.06" y2="214.62" xlink:href="#linear-gradient-2"/><linearGradient id="linear-gradient-13" x1="1827.34" y1="252" x2="1842.06" y2="252" xlink:href="#linear-gradient-2"/><linearGradient id="linear-gradient-14" x1="1598.46" y1="1085.84" x2="1669.12" y2="1085.84" xlink:href="#linear-gradient-2"/><linearGradient id="linear-gradient-15" x1="1573.14" y1="1085.84" x2="1602.59" y2="1085.84" xlink:href="#linear-gradient-2"/></defs><rect className="cls-1" width="2825.55" height="2000"/><rect className="cls-3" x="1259.98" y="496.47" width="527.46" height="527.46" rx="58.67"/><rect className="cls-4" x="1401.6" y="903.85" width="244.2" height="12.06"/><rect className="cls-4" x="1436.19" y="941.86" width="175.03" height="12.06"/><rect className="cls-5" x="1874.21" y="679.41" width="721.88" height="847.33" rx="69.11"/><rect className="cls-6" x="2201.52" y="1179.28" width="57.25" height="10.6"/><rect className="cls-4" x="1984.15" y="1276.45" width="333.16" height="20.53"/><rect className="cls-4" x="1984.15" y="1375.01" width="269.41" height="20.53"/><rect className="cls-4" x="1984.15" y="1325.73" width="157.94" height="20.53"/><path className="cls-6" d="M2404.46,763.91v10.37h61.06v57.29h10.36V763.91Zm-414.58,67.66h10.37V774.28h61.05V763.91h-71.42Zm475.64,295.66v57.32h-61.06v10.37h71.42v-67.69Zm-465.27,0h-10.37v67.69h71.42v-10.37h-61.05Z" transform="translate(0)"/><path className="cls-6" d="M2443.56,1397.05a61.06,61.06,0,1,1,61.06-61A61.12,61.12,0,0,1,2443.56,1397.05Zm0-110.29A49.24,49.24,0,1,0,2492.8,1336,49.29,49.29,0,0,0,2443.56,1286.76Z" transform="translate(0)"/><polygon className="cls-6" points="2439.67 1360.03 2411.93 1332.29 2420.29 1323.93 2439.67 1343.31 2466.84 1316.14 2475.2 1324.5 2439.67 1360.03"/><ellipse className="cls-7" cx="1489.56" cy="1873.22" rx="990.72" ry="46.37"/><rect className="cls-8" x="1839.24" y="301.15" width="387.52" height="349.01" rx="48.23"/><rect className="cls-6" x="2016.17" y="584.15" width="30.73" height="5.69"/><path className="cls-9" d="M2052,367.78s18.29,10,12.48,34.73-8,27.95-3.29,37.92,8.86,51.79,3.83,59.44-56-37.31-61.7-73.27,7.09-51.24,11.61-56.94S2035.91,358.61,2052,367.78Z" transform="translate(0)"/><path className="cls-10" d="M2086.37,571.84H2066.8c-1-9.66-1.82-16.38-1.64-17.38.28-1.64-19.48-53.49-21.33-57.78s-9.11-15.78-10-26.61,13.17-15.2,13.17-15.2c19.06,3.41,25.51,29.78,25.51,29.78s8,53.47,12.06,68.52C2085.56,557,2086.12,563.84,2086.37,571.84Z" transform="translate(0)"/><path className="cls-11" d="M2076.52,497.53l-29.15,12.29s-26.8-66.5-4.34-59.07S2075.5,472.06,2076.52,497.53Z" transform="translate(0)"/><path className="cls-11" d="M2070,528.84c-.85,6.6-4.33,30-3.56,36.3.14,1,.57,3.44,1.21,6.7h-70.29c1.87-6.68,3.57-12.59,4.6-16,3.42-11.32.15-14.36-1.58-23.41-.67-3.55-3-10.28-5.61-17.89-.86-2.54-1.74-5.19-2.59-7.85-3.1-9.58-4.53-19.38-5.42-25.09-4.24-27,16.56-29.64,16.56-29.64,7.72-1.42,21.23-5.59,21.23-5.59l21.14,4.39a23,23,0,0,1,5,2.93h0a37.9,37.9,0,0,1,4.76,4.17c2.31,2.37,6.91,9.16,11.5,16.63,1.4,2.29,2.82,4.64,4.15,6.95,4.3,7.44,7.35,13.44,7.26,20.21S2070.88,522.23,2070,528.84Z" transform="translate(0)"/><path className="cls-10" d="M2045.72,450.75s13.25,22.64,8.33,24.33-30.9-4-41-25.41C2013,449.67,2030.05,441.92,2045.72,450.75Z" transform="translate(0)"/><path className="cls-10" d="M2043.83,461.09s-11.77,5-22.43-11.41c0,0,2.87-18.62-3.19-29.38s26.46,12.9,26.46,12.9-.52,2.22-1.07,5.5c-.28,1.68-.56,3.63-.78,5.7-.19,1.72-.33,3.53-.39,5.34C2042.3,453.93,2042.6,458.08,2043.83,461.09Z" transform="translate(0)"/><path className="cls-12" d="M2014.61,486.45c-2.43,12.46-19.81,28.07-19.81,28.07-.86-2.55-1.74-5.19-2.59-7.84C2004.2,499,2014.61,486.45,2014.61,486.45Z" transform="translate(0)"/><path className="cls-10" d="M2010.25,496.37c-1.1,4.54-6.17,50.53-5.62,52.1.32.9,2.78,11.54,5.24,23.37h-22.7c-2.32-7.63-3.7-14-3.36-17.53,1.45-15.52-3.81-65-3.81-65s-4.71-29.92,20.11-33.66c0,0,14.67,1.93,15.55,12.76S2011.35,491.84,2010.25,496.37Z" transform="translate(0)"/><path className="cls-11" d="M1978.16,502.72l30.81,7.2s24.44-47.45,2.43-56.12C1988.2,444.67,1972.6,476.84,1978.16,502.72Z" transform="translate(0)"/><path className="cls-13" d="M2049.2,370.41s26.77,9.83,9.8,56-51.61-7.89-46.38-36.28S2049.2,370.41,2049.2,370.41Z" transform="translate(0)"/><path className="cls-9" d="M2063.11,398.5a61.43,61.43,0,0,1-36.81,13.2s-5.3,12.92-6.16,16.89c0,0-22.41-38.47,3.35-57.91S2072.62,390.44,2063.11,398.5Z" transform="translate(0)"/><path className="cls-13" d="M2029.36,414.47c0-3.42-1.75-11.29-6.93-9.35s-.54,18,2.87,17.19C2025.3,422.31,2029.39,422.57,2029.36,414.47Z" transform="translate(0)"/><path className="cls-14" d="M2042.46,449c-12.58-3.48-17.44-15.47-17.59-15.87,10.23,13.22,18,11.32,18,11.32C2042.63,446.12,2042.62,447.2,2042.46,449Z" transform="translate(0)"/><path className="cls-6" d="M2125.12,364.31v5.56h32.77v30.76h5.57V364.31Zm-222.56,36.32h5.56V369.87h32.78v-5.56h-38.34Zm255.33,158.71v30.78h-32.77v5.56h38.34V559.34Zm-249.77,0h-5.56v36.34h38.34v-5.56h-32.78Z" transform="translate(0)"/><rect className="cls-6" x="1503.18" y="844.91" width="41.05" height="7.6"/><path className="cls-6" d="M1646.73,551.26v7.44h43.78v41.08h7.43V551.26Zm-297.27,48.52h7.44V558.7h43.77v-7.44h-51.21Zm341,212v41.1h-43.78v7.43h51.21V811.78Zm-333.61,0h-7.44v48.53h51.21v-7.43H1356.9Z" transform="translate(0)"/><path className="cls-15" d="M1525,420.23s25.86-16.59,49.18,12.9,14.93,57.85,10,84.33c-4.83,26.25-28.34,86.34-18.35,112.8s-2.78,40.26-2.78,40.26-80.18,20.53-70.84-100.08S1525,420.23,1525,420.23Z" transform="translate(0)"/><path className="cls-16" d="M1476.16,687.57s-23.48,62.22-45.66,120.2h-60.17c9.19-28.39,18.52-58.65,19.55-64.21,2-10.8,2.86-42.8,15.18-65.26S1446.77,647,1446.77,647C1495.24,649.16,1476.16,687.57,1476.16,687.57Z" transform="translate(0)"/><path className="cls-17" d="M1627,748.32s-9.37,30.51-18.43,59.45H1412.24q-1.23-3.81-3.08-8c-14.37-33.28-21.36-61.62-14.37-80.53s46.82-70.66,57.11-72.71,39.84-16,39.84-16c19.33-2.88,46.8-1.46,56.26,1.85s62.07,8.61,81.38,23.61C1651.61,673.19,1627,748.32,1627,748.32Z" transform="translate(0)"/><path className="cls-18" d="M1482.3,696.4l-18-21,15.61-55.42S1485.17,650.79,1482.3,696.4Z" transform="translate(0)"/><path className="cls-10" d="M1477.63,596.32s5.9,54.27,4.67,71.93c0,0,30.73,30.8,65.7-36,0,0-14.72-27.52-3.64-65S1477.63,596.32,1477.63,596.32Z" transform="translate(0)"/><polygon className="cls-10" points="1482.3 668.25 1482.3 696.39 1517.67 669.96 1482.3 668.25"/><polygon className="cls-18" points="1482.3 696.39 1496.99 678.22 1546.46 628.91 1562.46 644.32 1482.3 696.39"/><path className="cls-16" d="M1647.63,698.53s-8.48,31.44-31.42,109.24H1514c-3.17-40.93-4.94-73.54-4.22-83.4,2-27.74,43.52-90.75,43.52-90.75s25.87,3.13,53.65,9.15C1638.68,649.65,1647.63,698.53,1647.63,698.53Z" transform="translate(0)"/><path className="cls-16" d="M1469.8,640.19c-25.31,30.28-34.3,96.83-35.73,167.58h-22.72C1385,752.62,1392,727.61,1392,727.61c13.77-47.14,54.73-80.64,54.73-80.64Z" transform="translate(0)"/><polygon className="cls-19" points="1464.32 675.35 1441.67 681.61 1479.93 619.93 1464.32 675.35"/><polygon className="cls-19" points="1496.99 678.22 1517.67 705.33 1559.94 634.5 1546.46 628.91 1496.99 678.22"/><path className="cls-14" d="M1478.84,608.26l1.09,10.69s24.36,4.77,56.33-34.23C1536.26,584.72,1513.6,612.36,1478.84,608.26Z" transform="translate(0)"/><path className="cls-13" d="M1485.05,609.05c-9.63-.35-36.49-3.49-49.75-65.39-16.19-75.61,19.59-114.83,50.23-122.1s58.89,3.39,74.58,42.91c0,0,11.46,30.81-7.15,85.7S1495.35,609.43,1485.05,609.05Z" transform="translate(0)"/><path className="cls-15" d="M1509.63,470.61s-41.15,2.55-79.39,60c0,0-17.9-69.13,28.89-100.68s79.55-4.43,91,9.33c0,0,16.37,3.76,16.89,34.83s21.4,77.94-24.43,100.17c0,0,4.36-35.46.33-43.57S1524.84,528.07,1509.63,470.61Z" transform="translate(0)"/><path className="cls-13" d="M1540.63,516.93c2.08-5.38,7.73-7.54,10.85-1.78s-.6,28.12-8.9,30.57S1536.43,527.83,1540.63,516.93Z" transform="translate(0)"/><path className="cls-16" d="M1687.27,807.77h-66.89c-7-17.23-13.57-32.49-17.94-43.47-14.49-36.45-72.13-105-35.4-127.84,0,0,48.14-3,72.27,25.13s22.83,61.44,29,75.92C1672.83,748.25,1681.71,785.23,1687.27,807.77Z" transform="translate(0)"/><path className="cls-20" d="M2462.86,1087.6h-74.53c-2.59-17.95-4.53-31-4.53-31s-1.09,12.09-2.75,31H2067.7c-1.44-13.62-2.67-22-3.3-22.29-.9-.46-4.23,8.59-8.45,22.29h-84.4c22-87.65,53.11-192.59,72.37-200C2076.54,875,2209.52,834,2209.52,834h75.92s134.89,38.49,147.44,80.31C2441.82,944.19,2453.53,1009.91,2462.86,1087.6Z" transform="translate(0)"/><path className="cls-21" d="M2382.91,1030.57l-2.45-.45c.12-.68,12.43-68.1-5.05-106.33l2.27-1C2395.49,961.7,2383,1029.89,2382.91,1030.57Z" transform="translate(0)"/><path className="cls-21" d="M2382.44,1017c-.08-.52-7.27-52.78-23-72.35l1.94-1.56c16.2,20.11,23.26,71.41,23.56,73.58Z" transform="translate(0)"/><path className="cls-13" d="M2251,587.8s70.88,11.16,60.09,122.06-73.35,101.8-77.53,101.69-62.8,2-67.37-133.37C2166.17,678.18,2164.18,578.06,2251,587.8Z" transform="translate(0)"/><path className="cls-13" d="M2284.07,778.89s-1.94,45.61,2.47,55.48-58.49,41.59-96.85,6.25c0,0,9.26-49.57,6.69-67.14S2284.07,778.89,2284.07,778.89Z" transform="translate(0)"/><path className="cls-13" d="M2312.17,678.53s7.76-8.29,10.6.1-12,45.9-11.06,47.58c0,0-1.42,3.25-3.28,1.46S2312.17,678.53,2312.17,678.53Z" transform="translate(0)"/><path className="cls-13" d="M2167,677.13s-7.6-8.44-10.6-.1,11.15,46.11,10.14,47.78c0,0,1.36,3.28,3.25,1.52S2167,677.13,2167,677.13Z" transform="translate(0)"/><path className="cls-22" d="M2312.13,695.54,2302,709.11s.29-29.74-1.34-34.41,1.93-20.9.57-24.26-48.48,9.14-125.75,1.46c0,0,8.59,26.79,3.55,28.69s-2.56,34.83-2.56,34.83L2168.1,706s-9.42-56.25-8.5-65.64c1.22-12.5-3.12-70.86,105.61-60.84a66.54,66.54,0,0,1,34.34,13.18c11.17,8.52,22.66,21.81,21.61,40.06C2319.77,656.9,2312.13,695.54,2312.13,695.54Z" transform="translate(0)"/><path className="cls-13" d="M2286.54,834.37s16,3.41-50.93,67.54c0,0-47.46-52.5-45.92-61.29S2286.54,834.37,2286.54,834.37Z" transform="translate(0)"/><path className="cls-23" d="M2057.34,1087.6h-88.11c13.69-52.35,30.2-107.51,40.42-142.92,17.63-60.88,41.66-62.57,41.66-62.57l13.09,183.2S2061.46,1074.2,2057.34,1087.6Z" transform="translate(0)"/><polygon className="cls-24" points="2235.61 901.91 2253.54 937.21 2310.07 848.25 2286.54 834.37 2235.61 901.91"/><path className="cls-23" d="M2465,1087.6h-77.25l-3.3-26.52s-.17,10.18-.49,26.52H2273.76c.14-4.91.41-9.5.85-13.75,9.22-87.76,11.92-239.48,11.92-239.48s117.76,15.82,146.35,80C2449.38,951.42,2459.15,1025.51,2465,1087.6Z" transform="translate(0)"/><polygon className="cls-24" points="2235.61 901.91 2210.31 937.21 2173.72 871.8 2189.69 840.62 2235.61 901.91"/><path className="cls-23" d="M2189.69,840.62s-13.61,58.21-20.27,142.58c-1.88,24-10.5,61.84-22,104.4h-80.72l-2.29-22.29-13.09-183.2Z" transform="translate(0)"/><polygon className="cls-23" points="2283.8 811.77 2323.14 834.37 2282.01 968.56 2283.8 811.77"/><polygon className="cls-23" points="2193.49 817.26 2189.69 840.62 2163.75 963.26 2150.44 834.05 2193.49 817.26"/><path className="cls-14" d="M2201.6,797.2s15.05,16.48,37.58,14.68,38.25-15.5,38.25-15.5-9.63,23.48-39.21,24.93S2201.6,797.2,2201.6,797.2Z" transform="translate(0)"/><path className="cls-25" d="M1409.49,879.9c-16.19,6.49-7,39.86-8.56,100.68s-46.4,71.84-46.4,71.84,19.73-23.29,23.74-44.61-40.27-75.19-20.92-117.48c14.94-32.67,54.15-11.65,54.15-11.65Z" transform="translate(0)"/><path className="cls-10" d="M1667.19,1205.39s-8-2.77-12.67-1.9,8.88-23.32,8.88-23.32Z" transform="translate(0)"/><path className="cls-10" d="M1663.4,1180.17s12.55-11,14.52-12.66,9.06-2.32,17.27-2.41,19.35,3.46,20.14,4.63,2.15,2,2.11,5.62a13.87,13.87,0,0,1-2.08,6.68s2.05,4.51-.74,8.07a7.31,7.31,0,0,1-2.09,7.86s1.58,4.27-1.42,6.6c0,0-7.11.71-9.66,1.74s-17.44,1.49-31.78-.27C1669.67,1206,1653.76,1204.73,1663.4,1180.17Z" transform="translate(0)"/><path className="cls-26" d="M1687.64,1183.53s-3.2,7.76-5.2,9.48,12.71,11.43,12.71,11.43S1697,1187.67,1687.64,1183.53Z" transform="translate(0)"/><path className="cls-27" d="M1713.18,1169.67s-20.81.74-21.1,4.11,1.64,4.78,1.64,4.78l-8.43,4.19s-4,5.92,3.61,8.56c0,0-4.32,5.15,3.35,6.82,0,0-1.34,4.66,2.07,6.06s16.79.37,16.79.37,3.66-1.23,2.35-6.35a7.73,7.73,0,0,0,1.58-8s2.73-3.08.77-8.13c0,0,5-7.26-.48-12.35C1715.33,1169.73,1714.06,1169.63,1713.18,1169.67Z" transform="translate(0)"/><path className="cls-10" d="M1692,1173.58s3.42-19.36,2.36-27.81c-.25-1.91-.18-2.63-2-3.13s-5,6.14-7,12-7.58,13-7.58,13S1677.53,1173.71,1692,1173.58Z" transform="translate(0)"/><path className="cls-28" d="M1370.3,1800.67s22.44,32.81,30.28,39.77c0,0,15.65,8.12,16.14,14.61.91,12.28,2,23.72-18.58,24.3s-33.93-4.28-37.7-16.75-12.76-23.21-12.76-23.21v26.11H1343s-1.16-25.24-1.45-29.88-3.34-22.49,6.45-30.39S1370.3,1800.67,1370.3,1800.67Z" transform="translate(0)"/><path className="cls-10" d="M1403.56,1842.12a52,52,0,0,1-24.38-.19c-13.24-3.34-26-35-29.82-37.68l-3.44-12.79h25.82s.21,9.46,4.39,17.56S1403.56,1842.12,1403.56,1842.12Z" transform="translate(0)"/><path className="cls-28" d="M1516,1788.41a83.61,83.61,0,0,0,9.72,16.24c4.66,6.08,19.14,31,25.52,32.78s26.11,5.22,27.85,16.25,2.61,18.85-16.82,19.72-32.2,2-41.48-11.6-24.08-23.5-24.08-23.5v35.57h-7.54s-3.48-37-5.51-39.63-7.25-31,10.73-45.83S1516,1788.41,1516,1788.41Z" transform="translate(0)"/><path className="cls-10" d="M1551.22,1837.43s-17.4,4.35-24.07,0-29.36-42.68-36.87-45c0,0,7.28-14.77,25.7-4C1516,1788.41,1546.29,1831.05,1551.22,1837.43Z" transform="translate(0)"/><path className="cls-16" d="M1360.43,1255.69s-24.54,31.9-31.2,69.76,3.93,164.91,3.64,183.62-17.33,78.39-13.85,113.63,22.53,180.89,22.53,180.89l42.52-.76s-8.52-158.74-6.34-173.53,9.09-77.74,10-83.83,48.44-167.18,48.44-194.47S1419.6,1211.16,1360.43,1255.69Z" transform="translate(0)"/><path className="cls-16" d="M1483.71,1268.16S1524,1422,1528.82,1443.37s14.36,49.16,13.92,53.08-5.08,69.62-5.08,69.62l-11.45,223.65h-42.5s-13.63-142.29-15.81-171,15.66-73.1,11.31-85.29-70-152.72-70-152.72S1359.41,1223.49,1483.71,1268.16Z" transform="translate(0)"/><path className="cls-29" d="M1472.37,1037.46s24.92,2.94,35.44,17.37,14,36.46,16.33,43.75,34.62,76.08,36.75,77.8,31.6.56,49.32,1.06c24.89.7,54.54.09,54.54.09l-3.62,35.63s-118.38,2.78-126.55-6.51c-18.06-20.52-58.84-92-58.84-92S1433.22,1056.68,1472.37,1037.46Z" transform="translate(0)"/><path className="cls-17" d="M1443.1,1026.53s20.88,9.86,28.14,11.31,35.39,38,40.32,51.34,0,33.36-10.16,56.86-.58,31.33-5.22,54.82-8.7,73.25-7.83,86.3-117.33,15.52-144.3-8.27c0,0,27.11-40.61,30.59-46.41s.58-37.42-2.61-45.54-36.58-73.47-36.58-73.47-5.22-56.77,10.47-69c13.64-10.59,50.79-14.36,57.47-16.68S1429.47,1024.5,1443.1,1026.53Z" transform="translate(0)"/><path className="cls-18" d="M1449.77,1073.08l12.69-14.86-11-39.12S1447.74,1040.89,1449.77,1073.08Z" transform="translate(0)"/><path className="cls-10" d="M1453.07,1002.43s-4.17,38.31-3.3,50.78c0,0-21.7,21.75-46.38-25.38,0,0,10.38-19.43,2.57-45.9S1453.07,1002.43,1453.07,1002.43Z" transform="translate(0)"/><polygon className="cls-10" points="1449.77 1053.21 1449.77 1073.09 1424.8 1054.42 1449.77 1053.21"/><polygon className="cls-18" points="1449.77 1073.09 1439.4 1060.25 1404.47 1025.43 1393.17 1036.32 1449.77 1073.09"/><path className="cls-29" d="M1409.6,1306c-9.85,47.08-81-5.31-81-5.31s46.16-77.51,27.81-139.47c-.14-.49-.29-1-.43-1.47q-1.77-5.88-3.51-11.18c-16.85-51.24-32-63.21-32-63.21s21.39-47,41.23-50.09,37.88-6.46,37.88-6.46,29.32,44.48,30.71,64.06S1419.44,1258.88,1409.6,1306Z" transform="translate(0)"/><path className="cls-29" d="M1516,1094.66s-4.72,44.42-13.72,66.46c0,0-3.77,47-3.19,63.53s4.5,79,4.5,79l-20.37,11.94a5.75,5.75,0,0,1-8.61-5.66c5.77-47.58,24.53-228.06-16-276.57l16.26,4.79S1508.35,1069.42,1516,1094.66Z" transform="translate(0)"/><polygon className="cls-19" points="1462.46 1058.22 1478.45 1062.64 1451.44 1019.1 1462.46 1058.22"/><polygon className="cls-19" points="1439.4 1060.25 1424.8 1079.39 1394.94 1029.63 1404.47 1025.43 1439.4 1060.25"/><path className="cls-29" d="M1509.58,1166.55s9.46-29.91,3.91-51c0,0,.75,18.65-10.42,43.27Z" transform="translate(0)"/><path className="cls-10" d="M1438,878.76c15.29-1.47,49.63,4.63,56.78,45a126.07,126.07,0,0,1-3,19.73c-2.25,8.72,6.65,33.71,4.7,35.06s-10.18,3.33-10.18,3.33-7.63,28.13-17.36,28.35-46.91-5.64-65.88-39.28S1376.26,884.68,1438,878.76Z" transform="translate(0)"/><path className="cls-25" d="M1494.75,923.74s-24.06,18.13-48.58,22.72-37.78,47.24-37.78,47.24-41.19-61.87-12.62-101.37S1497.89,876.2,1494.75,923.74Z" transform="translate(0)"/><path className="cls-10" d="M1435.86,945.81c-.36-4.77-6-11.69-13.54-4.79s4.08,29.12,10.39,26.59S1436.23,950.74,1435.86,945.81Z" transform="translate(0)"/><path className="cls-14" d="M1453.12,1008c-.55,3-1.12,6.47-1.59,10.15-20.57-11.73-31.35-26.68-31.35-26.68C1432.08,1001.21,1453.12,1008,1453.12,1008Z" transform="translate(0)"/><polygon className="cls-30" points="1472.04 1210.77 1385.47 1360.72 1289.23 1305.15 1372.04 1153.04 1472.04 1210.77"/><path className="cls-10" d="M1429.11,1310.35s-3.93,0-5.66-.81c0,0-3-1.75-5.25-2.87a15.86,15.86,0,0,0-1.75-.79c-1.77-.61-5.82-1.42-9.65-4.08s-17.38-18.35-17.38-18.35l6.4-9.74,4.69-10s28.47,1.84,32.32,3.9a11.94,11.94,0,0,1,1.06.65c3.09,2.06,4.53,4.89,6,6.16.54.47,5.68,5.49,5.5,7.63a7,7,0,0,1-3.41,5.9s-.74,5.8-3.59,8.5c0,0-.51,5.36-5,7.71C1433.4,1304.19,1432.28,1309.57,1429.11,1310.35Z" transform="translate(0)"/><path className="cls-29" d="M1372.87,1034.46s-28.71-3.66-43.77,25.31-15,41.33-17,55.48c-1.9,13.36-10.48,49.82-11.35,53.59s-20.3,48.67-11.39,64.37,100,62.22,99.37,65.69,15.76-35.11,15.76-35.11-36.82-20.52-42.85-26.84c-9.79-10.26-30.46-21.32-26.21-34,5-15,20-65.42,23.44-72.81S1395,1043.87,1372.87,1034.46Z" transform="translate(0)"/><path className="cls-31" d="M1370.41,1099.83c-1.07,27.84-14.42,59.88-14.42,59.88q-1.77-5.88-3.51-11.18C1360,1127.51,1370.41,1099.83,1370.41,1099.83Z" transform="translate(0)"/><polygon className="cls-32" points="1950.65 1122.75 2043.07 1173.54 2135.86 1027.51 2023.62 988.52 1950.65 1122.75"/><polygon className="cls-33" points="1956.52 1118.36 2042.93 1165.86 2129.72 1029.29 2024.75 992.83 1956.52 1118.36"/><path className="cls-10" d="M1924.87,1092.82s16.08-7.69,23.14-11.71,25.22-9.54,26.69-10.85,53.83-4.55,57-7.29,6.26,6.43-7.31,9.4-32.46,10.24-33.49,15.55,13.94,6.56,15.45,10.93-.42,3.39-2.57,4.32-17.81-7.73-24.7-5.27-17.41-1-22.69.86-31,10.44-31,10.44Z" transform="translate(0)"/><path className="cls-10" d="M2047.57,1155.22s13.51-12.16,20-17.25,18.81-20,20.62-20.92,25.24-49,29.06-50.89-3.62-8.41-11.7,3.23-22.29,26.6-27.7,25.51-.75-15.7-4.28-18.83-3.36-.92-5.08.74.36,19.8-4.64,25.33-5.89,16.78-9.65,21-21.89,25.1-21.89,25.1Z" transform="translate(0)"/><path className="cls-34" d="M1756.57,1805.24s-2.93,20.28-3.29,23.33-32.52-1.79-32.52-1.79l-2.6-24.16S1752.55,1802.38,1756.57,1805.24Z" transform="translate(0)"/><path className="cls-32" d="M1753.62,1826s10.19,12.23,20,17.56,25.33,7.44,31.16,13c4.21,4,15.32,21.12-25.6,20.78s-60.65,2.42-65-4.15,6.34-48.51,6.34-48.51S1730.22,1828.11,1753.62,1826Z" transform="translate(0)"/><path className="cls-34" d="M1986.92,1805.24s-2.92,20.28-3.28,23.33-32.52-1.79-32.52-1.79l-2.6-24.16S1982.91,1802.38,1986.92,1805.24Z" transform="translate(0)"/><path className="cls-32" d="M1984,1826s10.18,12.23,20,17.56,46.1,9.7,51.93,15.22c4.2,4,11.2,20-46.37,18.51-40.91-1.07-60.65,2.42-65-4.15s6.35-48.51,6.35-48.51S1960,1828.34,1984,1826Z" transform="translate(0)"/><path className="cls-32" d="M1783.19,1283.93s-30.21,48-28,91.38-11,90.75-15.5,136.07c-5,50.52-25.76,170.13-26.51,197.16s3.21,113.33,3.21,113.33l41.45,1s34.81-209.11,43.82-230.45,53.72-173.45,55.22-190.52S1783.19,1283.93,1783.19,1283.93Z" transform="translate(0)"/><path className="cls-32" d="M1942.21,1290.43S1965,1409.34,1968,1435.89s5,128.5,6.52,145.1,10,217.17,18,241.83h-53S1898.87,1677,1898.87,1608s-31.42-150-51.7-195.5-66.71-46.6-79.18-131C1768,1281.47,1925.33,1263.64,1942.21,1290.43Z" transform="translate(0)"/><path className="cls-10" d="M1833.6,880.41s40.55-15.15,59.24,15.72,16.9,92.66-3.54,100.25-51.14,3.63-61.6-15.68-19.92-47.24-19.46-65.9S1823,885.8,1833.6,880.41Z" transform="translate(0)"/><path className="cls-10" d="M1884.9,997.8s-1.69,11,1.1,16.34-52.53,5.53-52.53,5.53-4.49-29.33-13-54.12S1884.9,997.8,1884.9,997.8Z" transform="translate(0)"/><path className="cls-35" d="M1820.46,965.55s3.82,6.3,19.41,3.86,34.59-23.18,41.1-25.46,6.57-6.1,6.57-6.1l4.08,6,6.91.43s-6.31-18.55,3.2-26.11-9.87-60-59.85-42.57c0,0-38.39,10.58-37,32.42S1811.87,954.68,1820.46,965.55Z" transform="translate(0)"/><path className="cls-36" d="M1889.28,1013.49s-.17-10.31-4.84-11.29-51.56-5.5-57.29-3.24v12S1838.2,1017.76,1889.28,1013.49Z" transform="translate(0)"/><path className="cls-10" d="M1886.51,929.91c-.88-3.66-10.19-14.12-13.75-2.92s5.38,26.28,10.38,25S1888.72,939.2,1886.51,929.91Z" transform="translate(0)"/><path className="cls-37" d="M2075.34,1135.23h-.07C2075.59,1135.37,2075.63,1135.38,2075.34,1135.23Z" transform="translate(0)"/><path className="cls-29" d="M1749.11,1398.26s24.87,7.32,67.27,12,148.35-1.69,149-6.7-22.79-186.54-21.46-195.89S1946,1165,1946,1165c.52,9.13,9.82,46.41,21,66.74,4.06,7.34,17.66,30.35,24.22,25.12,31.74-25.34,80.89-120.84,84-121.65-2.62-1.14-23.29-10.65-26.19-11.62-2.54-.85-25.44,23.4-39.31,38.42-6.19,6.7-10.58,11.57-10.58,11.57-4-9-18.6-65.8-23.13-85.45-10.23-44.33-8.66-46.17-8.66-46.17-31-9.38-78.11-28.48-78.11-28.48l-62.13-2.53s-57,12.55-79.48,22.69c-2.13,1-2.14,50.87-8,64l18.61,39.28s10.76,77.81,13,112.41C1772.32,1265.19,1749.11,1398.26,1749.11,1398.26Z" transform="translate(0)"/><path className="cls-29" d="M1737.11,1162.41c1.62,5.23,9,9.66,13.77,11.59a17.8,17.8,0,0,0,9.95,1l2.43-.45h0l42.58-7.9s9.32-107.29-58.17-133C1745.89,1034.24,1722.21,1114.37,1737.11,1162.41Z" transform="translate(0)"/><path className="cls-38" d="M1750.88,1174h0a17.8,17.8,0,0,0,9.95,1l2.43-.45h0l-4.2-54.83Z" transform="translate(0)"/><path className="cls-38" d="M1999.18,1173.59l5.2,22s5.65-22.12,5.38-33.61C2003.57,1168.72,1999.18,1173.59,1999.18,1173.59Z" transform="translate(0)"/><path className="cls-35" d="M1822.05,884.05s-53.14-6.65-.9,82.11Z" transform="translate(0)"/><polygon className="cls-32" points="2093.14 1019.67 2098.55 1010.39 2056 995.71 2050.6 1004.94 2093.14 1019.67"/><g className="cls-39"><polygon className="cls-40" points="2458.23 590.14 2488.37 590.14 2479.14 571 2449 571 2458.23 590.14"/><polygon className="cls-41" points="2444.13 590.14 2451.31 590.14 2442.08 571 2434.9 571 2444.13 590.14"/><polygon className="cls-42" points="2339.99 567.35 2462.04 567.35 2457.99 557.78 2335.94 557.78 2339.99 567.35"/></g><rect className="cls-43" x="1754.27" y="169.45" width="51.72" height="15.59" rx="2.82"/><rect className="cls-44" x="1754.27" y="206.83" width="51.72" height="15.59" rx="2.82"/><rect className="cls-45" x="1754.27" y="244.21" width="51.72" height="15.59" rx="2.82"/><rect className="cls-46" x="1827.34" y="169.45" width="14.72" height="15.59" rx="2.82"/><rect className="cls-47" x="1827.34" y="206.83" width="14.72" height="15.59" rx="2.82"/><rect className="cls-48" x="1827.34" y="244.21" width="14.72" height="15.59" rx="2.82"/><polygon className="cls-49" points="1615.02 1103.01 1669.12 1103.01 1652.56 1068.66 1598.46 1068.66 1615.02 1103.01"/><polygon className="cls-50" points="1589.7 1103.01 1602.59 1103.01 1586.03 1068.66 1573.14 1068.66 1589.7 1103.01"/></svg>