<svg width="31" height="31" viewBox="0 0 31 31" fill="none" xmlns="http://www.w3.org/2000/svg">
<path d="M15.5 0C6.9404 0 0 6.9404 0 15.5C0 24.0596 6.9404 31 15.5 31C24.0596 31 31 24.0596 31 15.5C31 6.9404 24.0596 0 15.5 0ZM22.949 11.6838C22.9594 11.8464 22.9594 12.016 22.9594 12.182C22.9594 17.261 19.0913 23.1116 12.0229 23.1116C9.84319 23.1116 7.82266 22.4785 6.12042 21.3886C6.43181 21.4232 6.72935 21.4371 7.04766 21.4371C8.84676 21.4371 10.5006 20.8281 11.8187 19.7971C10.1304 19.7625 8.71183 18.6554 8.22745 17.133C8.81908 17.2195 9.3519 17.2195 9.96082 17.0638C9.09146 16.8872 8.31006 16.4151 7.74936 15.7276C7.18867 15.0401 6.88327 14.1798 6.88504 13.2926V13.2442C7.39364 13.5314 7.99219 13.7078 8.61841 13.732C8.09198 13.3812 7.66024 12.9059 7.3615 12.3482C7.06276 11.7905 6.90623 11.1678 6.9058 10.5352C6.9058 9.81897 7.09263 9.16507 7.42824 8.59766C8.39319 9.78554 9.5973 10.7571 10.9623 11.4491C12.3273 12.1412 13.8227 12.5382 15.3512 12.6145C14.808 10.0023 16.7594 7.88839 19.1051 7.88839C20.2123 7.88839 21.2087 8.35201 21.911 9.09933C22.7795 8.93672 23.6098 8.6115 24.3502 8.17556C24.0631 9.06473 23.461 9.81551 22.6618 10.2895C23.4368 10.2065 24.1842 9.99196 24.8761 9.69096C24.3537 10.459 23.6998 11.1406 22.949 11.6838Z" fill="url(#paint0_linear_11_1404)"/>
<defs>
<linearGradient id="paint0_linear_11_1404" x1="15.5" y1="0" x2="15.5" y2="31" gradientUnits="userSpaceOnUse">
<stop stop-color="#1FA2FF"/>
<stop offset="1" stop-color="#12D8FA"/>
</linearGradient>
</defs>
</svg>
